<svg width="72" height="77" viewBox="0 0 72 77" fill="none" xmlns="http://www.w3.org/2000/svg">
<path fill-rule="evenodd" clip-rule="evenodd" d="M6.64872 25.7998C4.55971 27.8891 4.55971 31.2316 4.55971 37.9338L4.54236 39.1002C4.54236 45.7854 4.54236 49.1453 6.63136 51.2168C8.72069 53.2884 12.0631 53.2884 18.7653 53.2884H19.9491C26.6343 53.2884 29.9942 53.2884 32.0657 51.2168C34.1373 49.1448 34.1373 45.8024 34.1373 39.1002V37.9164C34.1373 31.2312 34.1373 27.8714 32.0657 25.7998C29.9937 23.7108 26.6513 23.7108 19.9491 23.7108H18.7653C12.0801 23.7108 8.72026 23.7108 6.64872 25.7998ZM19.357 38.0912C20.7495 38.0912 22.003 37.5341 22.9082 36.6288C23.8135 35.7236 24.3705 34.4702 24.3705 33.0776C24.3705 31.685 23.8134 30.4316 22.9082 29.5264C22.003 28.6211 20.7495 28.064 19.357 28.064C17.9644 28.064 16.7109 28.6211 15.8057 29.5264C14.9004 30.4316 14.3434 31.685 14.3434 33.0776C14.3434 34.4702 14.9005 35.7236 15.8057 36.6288C16.7109 37.5341 17.9644 38.0912 19.357 38.0912ZM17.7554 31.476C18.1558 31.0756 18.7303 30.8145 19.357 30.8145C19.9836 30.8145 20.5581 31.0582 20.9585 31.476C21.3589 31.8764 21.62 32.4509 21.62 33.0775C21.62 33.7042 21.3763 34.2612 20.9585 34.679C20.5581 35.0794 19.9836 35.3405 19.357 35.3405C18.7303 35.3405 18.1732 35.0968 17.7554 34.679C17.355 34.2787 17.0939 33.7042 17.0939 33.0775C17.0939 32.4509 17.3376 31.8938 17.7554 31.476ZM26.094 40.128L24.6316 38.126H24.6318C24.5448 38.0041 24.3881 37.9867 24.3011 38.0912C22.9084 39.2749 21.2024 40.0409 19.3745 40.0409C17.5466 40.0409 15.8406 39.275 14.4479 38.0912C14.3434 38.0041 14.1868 38.0215 14.0997 38.126L12.62 40.128C12.5504 40.2325 12.5678 40.3717 12.6548 40.4414C13.8908 41.451 15.3357 42.1299 16.8328 42.4781L13.9779 47.9443C13.8909 48.101 14.0127 48.2925 14.1868 48.2925H17.2332C17.3202 48.2925 17.4073 48.2403 17.4421 48.1532L19.357 43.6445L21.2719 48.1532C21.3067 48.2403 21.3938 48.2925 21.4808 48.2925H24.5098C24.6839 48.2925 24.8058 48.101 24.7187 47.9443L21.8812 42.4781C23.3783 42.13 24.8232 41.451 26.0592 40.4414C26.1462 40.3717 26.1636 40.2325 26.094 40.128Z" fill="white"/>
<path d="M50.6572 38.5955C50.6572 36.0017 48.8989 34.1564 46.3399 34.1564C43.7635 34.1564 42.0052 35.9843 42.0052 38.5955C42.0052 41.1545 43.7635 42.9998 46.3399 42.9998C48.8989 42.9998 50.6572 41.1545 50.6572 38.5955ZM46.3399 45.8026C42.2663 45.8026 38.9935 42.7387 38.9935 38.5955C38.9935 34.4698 42.2663 31.3536 46.3399 31.3536C50.3786 31.3536 53.6687 34.4697 53.6687 38.5955C53.6687 42.7387 50.3959 45.8026 46.3399 45.8026ZM58.0909 31.9287V37.3774L63.1741 31.772C63.3134 31.6154 63.4527 31.5631 63.6616 31.5631H66.9344C67.1433 31.5631 67.1781 31.7894 67.0388 31.9287L60.6673 38.3523L67.3695 45.2287C67.5088 45.3679 67.4914 45.5942 67.2651 45.5942H64.0271C63.766 45.5942 63.679 45.5246 63.5223 45.4027L58.0909 39.4665V45.246C58.0909 45.4723 57.969 45.6116 57.7253 45.6116H55.4622C55.2359 45.6116 55.0966 45.4897 55.0966 45.246V31.9286C55.0966 31.7023 55.2185 31.563 55.4622 31.563H57.7253C57.969 31.563 58.0909 31.6849 58.0909 31.9286L58.0909 31.9287Z" fill="white"/>
</svg>
