<svg width="100" height="77" viewBox="0 0 100 77" fill="none" xmlns="http://www.w3.org/2000/svg">
<g clip-path="url(#clip0_3689_191405)">
<path d="M34.1236 28.8262C28.8833 28.8262 24.635 33.1574 24.635 38.5C24.635 43.8427 28.8833 48.1739 34.1236 48.1739C39.3638 48.1739 43.6121 43.8427 43.6121 38.5C43.6121 33.1574 39.3638 28.8262 34.1236 28.8262ZM34.1236 44.8608C30.6786 44.8608 27.8847 42.0134 27.8847 38.5C27.8847 34.9878 30.6775 32.1393 34.1236 32.1393C37.5685 32.1393 40.3625 34.9867 40.3625 38.5C40.3636 42.0123 37.5696 44.8608 34.1236 44.8608Z" fill="white"/>
<path d="M13.1536 28.8262C7.91332 28.8262 3.66504 33.1574 3.66504 38.5C3.66504 43.8427 7.91332 48.1739 13.1536 48.1739C14.9544 48.1739 16.6394 47.662 18.0739 46.7733V42.4083C16.9329 43.9 15.153 44.8608 13.1536 44.8608C9.70863 44.8608 6.91469 42.0134 6.91469 38.5C6.91469 34.9878 9.70753 32.1393 13.1536 32.1393C16.5986 32.1393 19.3925 34.9867 19.3925 38.5V45.7855V55.9645C19.3925 56.8792 20.1197 57.6205 21.0168 57.6205C21.9139 57.6205 22.641 56.8792 22.641 55.9645V38.5C22.6421 33.1574 18.395 28.8262 13.1536 28.8262Z" fill="white"/>
<path d="M55.0482 48.1739C60.2885 48.1739 64.5368 43.8426 64.5368 38.5C64.5368 33.1574 60.2885 28.8261 55.0482 28.8261C53.2474 28.8261 51.5624 29.338 50.128 30.2268V34.5918C51.2689 33.1 53.0488 32.1393 55.0482 32.1393C58.4932 32.1393 61.2871 34.9866 61.2871 38.5C61.2871 42.0123 58.4943 44.8608 55.0482 44.8608C51.6033 44.8608 48.8093 42.0134 48.8093 38.5V31.2145V21.0355C48.8093 20.1209 48.0822 19.3795 47.1851 19.3795C46.288 19.3795 45.5608 20.1209 45.5608 21.0355V38.5C45.5586 43.8426 49.808 48.1739 55.0482 48.1739Z" fill="white"/>
<path d="M74.523 48.1739C69.2121 48.1739 66.6819 43.3297 66.6819 40.8445C66.6819 38.3594 66.6819 30.4822 66.6819 30.4822C66.6819 29.5675 67.4091 28.8262 68.3073 28.8262C69.2044 28.8262 69.9315 29.5675 69.9315 30.4822C69.9315 30.4822 69.9315 39.3438 69.9315 40.4699C69.9315 41.596 70.2229 44.8619 74.6378 44.8619C78.3167 44.8619 79.1133 42.3925 79.1133 41.1269C79.1133 39.8602 79.1133 30.4833 79.1133 30.4833C79.1133 29.5687 79.8405 28.8273 80.7387 28.8273C81.6358 28.8273 82.363 29.5687 82.363 30.4833C82.363 30.4833 82.363 39.0164 82.363 41.0335C82.3641 43.0484 80.5246 48.1739 74.523 48.1739Z" fill="white"/>
<path d="M96.3833 48.1739C97.276 48.1739 97.9999 47.4359 97.9999 46.5257C97.9999 45.6156 97.276 44.8776 96.3833 44.8776H88.7574L95.3328 35.8292C97.9083 32.3136 97.9999 32.173 97.9999 31.1886C97.9999 30.0636 96.8964 28.969 95.7919 28.969C94.6884 28.969 86.1886 28.969 86.1886 28.969C85.2959 28.969 84.572 29.707 84.572 30.6171C84.572 31.5272 85.2959 32.2652 86.1886 32.2652H94.044C94.044 32.2652 85.6744 43.5175 84.9384 44.5491C84.2024 45.5796 84.6162 48.1739 86.5935 48.1739C88.5709 48.1739 96.3833 48.1739 96.3833 48.1739Z" fill="white"/>
</g>
<defs>
<clipPath id="clip0_3689_191405">
<rect width="96" height="45" fill="white" transform="translate(2 16)"/>
</clipPath>
</defs>
</svg>
