<svg width="110" height="77" viewBox="0 0 110 77" fill="none" xmlns="http://www.w3.org/2000/svg">
<g clip-path="url(#clip0_3689_191375)">
<path fill-rule="evenodd" clip-rule="evenodd" d="M18.0106 53.4831C9.76996 53.4831 3.02759 46.7407 3.02759 38.5C3.02759 30.2593 9.76996 23.517 18.0106 23.517C26.2513 23.517 32.9937 30.2593 32.9937 38.5C32.9937 46.7407 26.2513 53.4831 18.0106 53.4831ZM27.0004 35.9717V35.878C26.5322 34.1924 25.5958 32.6941 24.2848 31.5704C22.9738 30.4467 21.4754 29.6039 19.7899 29.3229H19.6962C19.6026 29.3229 19.5089 29.3229 19.4153 29.4166C19.3216 29.5102 19.3216 29.6039 19.3216 29.6975V29.7911C20.1644 34.9416 19.6026 40.1856 17.7297 45.0551C17.7297 45.1019 17.7063 45.1254 17.6829 45.1488C17.6595 45.1722 17.636 45.1956 17.636 45.2424C17.636 45.3361 17.5424 45.3361 17.4488 45.3361H17.2615C17.2615 45.3361 17.1678 45.3361 17.1678 45.2424L17.0742 45.1488V44.9615C17.0742 44.9615 16.9805 44.306 16.9805 44.025C16.4187 39.5301 15.1077 35.2225 12.9538 31.1958C12.9538 31.1022 12.8602 31.1022 12.8602 31.1022L12.7665 31.0085H12.5793H12.392C11.081 32.0386 10.0509 33.3496 9.39536 34.9416V35.2225C9.39536 35.3161 9.48901 35.4098 9.58265 35.4098C11.6428 36.7208 13.3284 38.4064 14.5458 40.5602C15.7632 42.6204 16.4187 45.0551 16.5123 47.3962C16.5123 47.4899 16.5123 47.5835 16.606 47.6772C16.6996 47.7708 16.7932 47.7708 16.7932 47.7708C16.8869 47.7708 17.0039 47.7942 17.121 47.8176C17.2381 47.841 17.3551 47.8644 17.4488 47.8644C17.5424 47.8644 17.636 47.8644 17.7297 47.7708C17.8233 47.6772 17.8233 47.6772 17.8233 47.5835C18.2915 45.1488 19.3216 42.8077 20.9136 40.8411C22.5055 38.8746 24.4721 37.3763 26.8132 36.3462C26.86 36.3462 26.8834 36.3228 26.9068 36.2994C26.9302 36.276 26.9536 36.2526 27.0004 36.2526V35.9717ZM15.9504 47.0217C15.3886 46.0852 14.6394 45.2424 13.703 44.6806C12.7665 44.1187 11.8301 43.6505 10.7064 43.3695C10.6127 43.3695 10.5191 43.3695 10.4254 43.4632C10.3318 43.5568 10.3318 43.6505 10.3318 43.7441C10.3318 43.8378 10.3318 43.9314 10.4254 43.9314C11.6428 45.7106 13.5157 47.0217 15.5759 47.5835H15.6695H15.8568C15.8568 47.5835 15.9504 47.5835 15.9504 47.4899L16.0441 47.3962V47.2089C16.0441 47.1153 16.0441 47.0217 15.9504 47.0217ZM26.064 42.8077C26.1577 42.9013 26.1577 42.995 26.1577 43.0886C26.1577 43.1822 26.1577 43.2759 26.064 43.3695C25.3149 44.6805 24.1911 45.8043 22.8801 46.5534C21.5691 47.3026 20.0708 47.7708 18.5725 47.8644C18.4788 47.8644 18.3852 47.8644 18.2915 47.7708C18.1979 47.6772 18.1979 47.5835 18.1979 47.4899C18.1979 47.3962 18.1979 47.3026 18.2915 47.2089C20.1644 44.9615 22.7865 43.3695 25.6894 42.714H25.7831C25.8767 42.714 25.9704 42.714 26.064 42.8077Z" fill="white"/>
<path d="M40.7661 44.1186C40.0169 44.1186 39.2678 44.025 38.6123 43.6504C38.0504 43.3695 37.5822 42.9013 37.2076 42.3394C36.9267 41.6839 36.7394 41.0284 36.7394 40.3729V40.0919H39.3614C39.3614 40.5602 39.4551 40.9347 39.6423 41.3093C39.8296 41.4966 40.2042 41.6839 40.4851 41.6839C40.7661 41.6839 41.1407 41.6839 41.4216 41.4966C41.6089 41.403 41.7025 41.122 41.7962 40.9347C41.8898 40.6538 41.8898 40.3729 41.8898 40.0919V32.1322H44.7928V39.9983C44.8864 41.122 44.5118 42.2458 43.7627 43.0886C43.3881 43.4631 42.8262 43.7441 42.358 43.9314C41.7962 44.025 41.3279 44.1186 40.7661 44.1186Z" fill="white"/>
<path d="M47.6958 33.9115C47.4149 33.9115 47.134 33.8179 46.9467 33.7242C46.7594 33.6306 46.5721 33.4433 46.3848 33.256C46.2912 33.0687 46.1975 32.7878 46.1975 32.5068C46.1975 32.2259 46.2912 31.945 46.3848 31.7577C46.4784 31.5704 46.6657 31.3831 46.9467 31.2895C47.2276 31.1958 47.4149 31.1022 47.6958 31.1022C47.9767 31.1022 48.2577 31.1958 48.445 31.2895C48.6323 31.3831 48.8195 31.5704 49.0068 31.7577C49.1005 31.945 49.1941 32.2259 49.1941 32.5068C49.1941 32.7878 49.1005 32.9751 49.0068 33.256C48.9132 33.4433 48.7259 33.6306 48.445 33.7242C48.2577 33.8179 47.9767 33.9115 47.6958 33.9115ZM46.3848 43.8378V35.1289H49.0068V43.8378H46.3848Z" fill="white"/>
<path d="M54.8127 44.1186C53.9699 44.1186 53.1271 43.9314 52.4716 43.5568C51.8161 43.1822 51.2542 42.6203 50.8796 41.9648C50.505 41.2157 50.3177 40.3729 50.3177 39.5301C50.3177 38.6873 50.505 37.8445 50.8796 37.0953C51.2542 36.4398 51.7224 35.878 52.4716 35.5034C53.2207 35.1288 54.0635 34.9415 54.8127 34.9415C55.6555 34.9415 56.4046 35.1288 57.1538 35.5034C57.8093 35.878 58.3711 36.4398 58.6521 37.0953C59.0266 37.8445 59.2139 38.6873 59.2139 39.5301C59.2139 40.3729 59.0266 41.2157 58.6521 41.9648C58.2775 42.6203 57.7156 43.1822 57.0601 43.5568C56.4046 43.9314 55.5618 44.1186 54.8127 44.1186ZM54.8127 42.1521C55.1872 42.1521 55.5618 42.0585 55.8428 41.8712C56.1237 41.5903 56.4046 41.3093 56.4983 40.9347C56.6855 40.4665 56.6855 39.9983 56.6855 39.5301C56.6855 39.0619 56.5919 38.5936 56.4983 38.2191C56.4046 37.8445 56.2173 37.5636 55.9364 37.2826C55.6555 37.0017 55.2809 36.9081 54.9063 36.9081C54.5317 36.9081 54.2508 37.0017 53.9699 37.189C53.6889 37.3763 53.5016 37.7509 53.3144 38.0318C53.1271 38.5 53.1271 38.9682 53.1271 39.4364C53.1271 39.9047 53.2207 40.3729 53.3144 40.8411C53.408 41.2157 53.5953 41.4966 53.9699 41.7775C54.0635 41.9648 54.4381 42.0585 54.8127 42.1521Z" fill="white"/>
<path d="M65.1135 44.1186C64.2707 44.1186 63.4279 44.025 62.6788 43.7441C61.9296 43.4631 61.2741 43.0886 60.8059 42.5267C60.3377 41.9648 60.0568 41.2157 60.0568 40.5602V40.3729H62.9597C62.9597 40.6538 63.0534 41.0284 63.2407 41.2157C63.428 41.4966 63.7089 41.5902 64.0835 41.6839C64.458 41.7775 64.8326 41.8712 65.2072 41.8712C65.6754 41.8712 66.2373 41.7775 66.6118 41.5902C66.7991 41.4966 66.8928 41.403 67.0801 41.2157C67.1737 41.0284 67.2674 40.8411 67.1737 40.6538C67.1737 40.4665 67.0801 40.1856 66.9864 40.0919C66.7991 39.9047 66.6118 39.7174 66.4246 39.6237C66.05 39.4364 65.6754 39.3428 65.3008 39.2491L63.147 38.6873C62.5851 38.5936 62.1169 38.3127 61.6487 37.9381C61.2741 37.6572 60.8996 37.2826 60.7123 36.908C60.525 36.4398 60.4313 35.9716 60.4313 35.5034C60.4313 34.7542 60.6186 34.0987 61.0868 33.5369C61.5551 32.975 62.1169 32.6004 62.7724 32.3195C63.4279 31.9449 64.2707 31.8513 65.0199 31.9449C65.8627 31.9449 66.6118 32.0386 67.361 32.3195C68.0165 32.5068 68.5784 32.975 68.9529 33.4432C69.3275 34.0051 69.6085 34.6606 69.6085 35.3161H66.7991C66.7991 35.1288 66.7055 34.9415 66.6118 34.7542C66.5182 34.5669 66.4246 34.4733 66.2373 34.3797C65.769 34.1924 65.3008 34.0051 64.8326 34.0987C64.458 34.0987 63.9898 34.1924 63.6152 34.3797C63.4279 34.4733 63.3343 34.5669 63.2407 34.6606C63.147 34.7542 63.147 34.9415 63.147 35.1288C63.147 35.3161 63.147 35.5034 63.2407 35.6907C63.3343 35.878 63.5216 35.9716 63.7089 36.0652C63.9898 36.1589 64.3644 36.3462 64.6453 36.3462L66.05 36.7208C66.7991 36.908 67.4546 37.189 68.1101 37.4699C68.672 37.7508 69.0466 38.0318 69.4212 38.5C69.7957 38.9682 69.983 39.6237 69.8894 40.1856C69.8894 40.9347 69.7021 41.5902 69.3275 42.2458C68.8593 42.8076 68.2974 43.2758 67.6419 43.5568C66.8928 43.9313 65.9563 44.1186 65.1135 44.1186Z" fill="white"/>
<path d="M73.8224 44.1186C73.2605 44.1186 72.6987 44.025 72.2305 43.8377C71.7622 43.6504 71.3877 43.2759 71.2004 42.9013C70.9195 42.4331 70.8258 41.9648 70.8258 41.403C70.8258 40.9347 70.9194 40.5602 71.1067 40.1856C71.294 39.811 71.575 39.5301 71.9495 39.2492C72.9796 38.6873 74.1033 38.5 75.1334 38.5936H76.4444V38.3127C76.4444 38.0318 76.4445 37.6572 76.3508 37.3763C76.2572 37.189 76.0699 37.0017 75.8826 36.8144C75.6017 36.7208 75.3207 36.6271 75.1334 36.6271C74.7589 36.6271 74.3843 36.7208 74.1033 36.9081C74.0097 37.0017 73.9161 37.0953 73.8224 37.189C73.7288 37.2826 73.7288 37.4699 73.7288 37.5636H71.2004C71.2004 37.0017 71.3877 36.5335 71.7622 36.1589C72.1368 35.6907 72.605 35.4097 73.1669 35.2225C73.8224 35.0352 74.5716 34.9415 75.3207 34.9415C76.0699 34.9415 76.819 35.0352 77.4745 35.3161C78.0364 35.5034 78.411 35.9716 78.6919 36.4398C78.9728 37.0953 79.1601 37.7509 79.0665 38.4064V43.8377H76.7254L76.6317 42.8076C76.3508 43.1822 76.0699 43.5568 75.6017 43.7441C75.0398 43.9314 74.3843 44.1186 73.8224 44.1186ZM74.7589 42.2458C75.0398 42.2458 75.4144 42.1521 75.6953 42.0585C75.9762 41.9648 76.1635 41.6839 76.2572 41.4966C76.4444 41.2157 76.4444 40.8411 76.4444 40.5602V39.9983H75.508C75.1334 39.9983 74.7589 39.9983 74.3843 40.092C74.1033 40.1856 73.9161 40.2792 73.7288 40.4665C73.6351 40.5602 73.5415 40.6538 73.5415 40.7475C73.5415 40.8411 73.4478 41.0284 73.4478 41.122C73.4478 41.3093 73.4478 41.403 73.5415 41.5903C73.6351 41.7775 73.7288 41.8712 73.8224 41.9648C74.1033 42.1521 74.3843 42.2458 74.7589 42.2458Z" fill="white"/>
<path d="M83.0933 44.1186C82.5314 44.1186 81.9696 44.025 81.5013 43.8377C81.0331 43.6504 80.6585 43.2759 80.4713 42.9013C80.1903 42.4331 80.0967 41.9648 80.0967 41.403C80.0967 40.9347 80.1903 40.5602 80.3776 40.1856C80.5649 39.811 80.8458 39.5301 81.2204 39.2492C82.2505 38.6873 83.3742 38.5 84.4979 38.5H85.809V38.2191C85.809 37.9381 85.809 37.5636 85.7153 37.2826C85.6217 37.0953 85.4344 36.9081 85.2471 36.8144C84.9662 36.7208 84.6852 36.6271 84.4979 36.6271C84.1234 36.6271 83.7488 36.7208 83.4679 36.9081C83.3742 37.0017 83.2806 37.0953 83.1869 37.189C83.0933 37.2826 83.0933 37.4699 83.0933 37.5636H80.5649C80.5649 37.0017 80.7522 36.5335 81.1268 36.1589C81.5013 35.6907 81.9696 35.4097 82.5314 35.2225C83.1869 35.0352 83.9361 34.9415 84.6852 34.9415C85.4344 34.9415 86.1835 35.0352 86.8391 35.3161C87.4009 35.5034 87.7755 35.9716 88.0564 36.4398C88.3374 37.0953 88.5246 37.7509 88.431 38.4064V43.8377H85.9963L85.9026 42.8076C85.6217 43.1822 85.3407 43.5568 84.8725 43.7441C84.3107 43.9314 83.6552 44.1186 83.0933 44.1186ZM84.0297 42.2458C84.3107 42.2458 84.6852 42.1521 84.9662 42.0585C85.2471 41.9648 85.4344 41.6839 85.528 41.4966C85.7153 41.2157 85.7153 40.8411 85.7153 40.5602V39.9983H84.7789C84.4043 39.9983 84.0297 39.9983 83.6552 40.092C83.3742 40.1856 83.1869 40.2792 82.9996 40.4665C82.906 40.5602 82.8124 40.6538 82.8124 40.7475C82.8124 40.8411 82.7187 41.0284 82.7187 41.122C82.7187 41.3093 82.7187 41.403 82.8124 41.5903C82.906 41.7775 82.9996 41.8712 83.0933 41.9648C83.3742 42.1521 83.6552 42.2458 84.0297 42.2458Z" fill="white"/>
<path d="M91.7085 43.8377L88.8992 35.1288H91.7085L93.3004 40.9347L94.8924 35.1288H97.4208L94.6115 43.8377H91.7085Z" fill="white"/>
<path d="M98.3572 43.8377V35.1288H100.886V36.3462C101.166 35.878 101.541 35.5034 102.009 35.3161C102.478 35.0352 102.946 34.9415 103.508 34.9415C104.069 34.9415 104.631 35.0352 105.193 35.3161C105.661 35.597 106.036 35.9716 106.223 36.4398C106.504 37.0017 106.598 37.6572 106.598 38.3127V43.9314H103.976V39.0619C103.976 38.5 103.882 37.9381 103.601 37.4699C103.508 37.2826 103.32 37.189 103.133 37.0953C102.946 37.0017 102.758 37.0017 102.571 37.0017C102.384 37.0017 102.103 37.0017 101.916 37.0953C101.728 37.189 101.541 37.2826 101.354 37.4699C101.073 37.9381 100.886 38.5 100.979 39.0619V43.8377H98.3572Z" fill="white"/>
</g>
<defs>
<clipPath id="clip0_3689_191375">
<rect width="104" height="29.9661" fill="white" transform="translate(3 23.517)"/>
</clipPath>
</defs>
</svg>
