<svg width="110" height="77" viewBox="0 0 110 77" fill="none" xmlns="http://www.w3.org/2000/svg">
<g clip-path="url(#clip0_3683_191346)">
<path fill-rule="evenodd" clip-rule="evenodd" d="M17.963 50.3519H92.037C93.6963 50.3519 95 49.0482 95 47.3889V29.6112C95 27.9519 93.6963 26.6482 92.037 26.6482H17.963C16.3037 26.6482 15 27.9519 15 29.6112V47.3889C15 49.0482 16.3037 50.3519 17.963 50.3519ZM43.0889 32.6925C43.0889 33.1666 42.9704 33.5814 42.6741 33.8777C42.3185 34.2332 41.9037 34.411 41.3704 34.411C40.837 34.411 40.4222 34.2332 40.0667 33.8777C39.7111 33.5221 39.5333 33.1073 39.5333 32.574C39.5333 32.0406 39.7111 31.6258 40.0667 31.2703C40.4222 30.9147 40.837 30.7369 41.3704 30.7369C41.6074 30.7369 41.8444 30.7962 42.0815 30.9147C42.3185 31.0332 42.4963 31.1518 42.6148 31.3295L42.3185 31.6258C42.0815 31.3295 41.7852 31.211 41.3704 31.211C41.0148 31.211 40.6593 31.3295 40.4222 31.6258C40.1259 31.8629 40.0074 32.2184 40.0074 32.6332C40.0074 33.048 40.1259 33.4036 40.4222 33.6406C40.7185 33.8777 41.0148 34.0555 41.3704 34.0555C41.7852 34.0555 42.0815 33.9369 42.3778 33.6406C42.5556 33.4629 42.6741 33.2258 42.6741 32.9295H41.3704V32.4555H43.0889V32.6925ZM45.8148 31.211H44.2148V32.3369H45.6963V32.7518H44.2148V33.8777H45.8148V34.3518H43.7407V30.7962H45.8148V31.211ZM47.7704 34.3518H47.2963V31.211H46.2889V30.7962H48.7778V31.211H47.7704V34.3518ZM50.4963 30.7962H50.9704V34.3518H50.4963V30.7962ZM52.9259 34.3518H52.5111V31.211H51.5037V30.7962H53.9333V31.211H52.9259V34.3518ZM58.6148 33.8777C58.2593 34.2332 57.8444 34.411 57.3111 34.411C56.7778 34.411 56.363 34.2332 56.0074 33.8777C55.6519 33.5221 55.4741 33.1073 55.4741 32.574C55.4741 32.0406 55.6519 31.6258 56.0074 31.2703C56.363 30.9147 56.7778 30.7369 57.3111 30.7369C57.8444 30.7369 58.2593 30.9147 58.6148 31.2703C58.9704 31.6258 59.1482 32.0406 59.1482 32.574C59.1482 33.1073 58.9704 33.5221 58.6148 33.8777ZM56.363 33.5814C56.6 33.8184 56.9556 33.9962 57.3111 33.9962C57.6667 33.9962 58.0222 33.8777 58.2593 33.5814C58.4963 33.3443 58.6741 32.9888 58.6741 32.574C58.6741 32.1592 58.5556 31.8036 58.2593 31.5666C58.0222 31.3295 57.6667 31.1518 57.3111 31.1518C56.9556 31.1518 56.6 31.2703 56.363 31.5666C56.1259 31.8036 55.9482 32.1592 55.9482 32.574C55.9482 32.9888 56.0667 33.3443 56.363 33.5814ZM59.8 30.7962H60.3333L62.0519 33.5814V30.7962H62.5259V34.3518H62.0519L60.2148 31.448V34.3518H59.8V30.7962ZM55.3556 39.5666C53.9333 39.5666 52.8074 40.6333 52.8074 42.1148C52.8074 43.537 53.9333 44.6629 55.3556 44.6629C56.7778 44.6629 57.9037 43.5962 57.9037 42.1148C57.9037 40.574 56.7778 39.5666 55.3556 39.5666ZM55.3556 43.5962C54.5852 43.5962 53.9333 42.9444 53.9333 42.0555C53.9333 41.1666 54.5852 40.5148 55.3556 40.5148C56.1259 40.5148 56.7778 41.1074 56.7778 42.0555C56.7778 42.9444 56.1259 43.5962 55.3556 43.5962ZM49.8444 39.5666C48.4222 39.5666 47.2963 40.6333 47.2963 42.1148C47.2963 43.537 48.4222 44.6629 49.8444 44.6629C51.2667 44.6629 52.3926 43.5962 52.3926 42.1148C52.3926 40.574 51.2667 39.5666 49.8444 39.5666ZM49.8444 43.5962C49.0741 43.5962 48.4222 42.9444 48.4222 42.0555C48.4222 41.1666 49.0741 40.5148 49.8444 40.5148C50.6148 40.5148 51.2667 41.1074 51.2667 42.0555C51.2667 42.9444 50.6148 43.5962 49.8444 43.5962ZM43.2667 40.337V41.4036H45.8148C45.7556 41.9962 45.5185 42.4703 45.2222 42.7666C44.8667 43.1222 44.2741 43.537 43.2667 43.537C41.6667 43.537 40.4815 42.2925 40.4815 40.6925C40.4815 39.0925 41.7259 37.8481 43.2667 37.8481C44.0963 37.8481 44.7481 38.2036 45.2222 38.6185L45.9926 37.8481C45.3407 37.2555 44.5111 36.7814 43.3259 36.7814C41.1926 36.7814 39.3556 38.5592 39.3556 40.6925C39.3556 42.8259 41.1926 44.6036 43.3259 44.6036C44.5111 44.6036 45.3407 44.2481 46.0518 43.4777C46.763 42.7666 47 41.7592 47 40.9888C47 40.7518 47 40.5148 46.9407 40.337H43.2667ZM70.1704 41.1666C69.9333 40.574 69.3407 39.5666 68.037 39.5666C66.7333 39.5666 65.6667 40.574 65.6667 42.1148C65.6667 43.537 66.7333 44.6629 68.1556 44.6629C69.2815 44.6629 69.9926 43.9518 70.2296 43.537L69.4 42.9444C69.1037 43.3592 68.7481 43.6555 68.1556 43.6555C67.563 43.6555 67.2074 43.4185 66.9111 42.8851L70.2889 41.4629L70.1704 41.1666ZM66.7333 41.9962C66.7333 41.0481 67.5037 40.5148 68.037 40.5148C68.4518 40.5148 68.8667 40.7518 68.9852 41.0481L66.7333 41.9962ZM63.9481 44.4259H65.0741V37.0185H63.9481V44.4259ZM62.1704 40.0999C61.8741 39.8036 61.4 39.5074 60.8074 39.5074C59.563 39.5074 58.3778 40.6333 58.3778 42.0555C58.3778 43.4777 59.5037 44.5444 60.8074 44.5444C61.4 44.5444 61.8741 44.2481 62.1111 43.9518H62.1704V44.3074C62.1704 45.2555 61.637 45.7888 60.8074 45.7888C60.1556 45.7888 59.6815 45.3148 59.563 44.8999L58.6148 45.3148C58.9111 45.9666 59.6222 46.7962 60.8667 46.7962C62.1704 46.7962 63.237 46.0259 63.237 44.1888V39.6851H62.1704V40.0999ZM60.8667 43.5962C60.0963 43.5962 59.4444 42.9444 59.4444 42.0555C59.4444 41.1666 60.0963 40.5148 60.8667 40.5148C61.637 40.5148 62.2296 41.1666 62.2296 42.0555C62.2296 42.9444 61.637 43.5962 60.8667 43.5962ZM75.3259 37.0185H72.6593V44.4259H73.7852V41.6407H75.3259C76.5704 41.6407 77.7556 40.7518 77.7556 39.3296C77.7556 37.9074 76.5704 37.0185 75.3259 37.0185ZM75.3852 40.574H73.7852V38.0259H75.3852C76.2148 38.0259 76.6889 38.737 76.6889 39.2703C76.6296 39.9222 76.1556 40.574 75.3852 40.574ZM82.2 39.5074C81.3704 39.5074 80.5407 39.8629 80.2444 40.6333L81.2518 41.0481C81.4889 40.6333 81.8444 40.5148 82.2593 40.5148C82.8518 40.5148 83.3852 40.8703 83.4444 41.4629V41.5222C83.2667 41.4036 82.7926 41.2259 82.3185 41.2259C81.2518 41.2259 80.1852 41.8185 80.1852 42.8851C80.1852 43.8925 81.0741 44.5444 82.0222 44.5444C82.7926 44.5444 83.1481 44.1888 83.4444 43.8333H83.5037V44.4259H84.5704V41.5814C84.4519 40.2777 83.4444 39.5074 82.2 39.5074ZM82.0815 43.5962C81.7259 43.5962 81.1926 43.4185 81.1926 42.9444C81.1926 42.3518 81.8444 42.174 82.3778 42.174C82.804 42.174 83.0386 42.2698 83.2969 42.3753L83.2971 42.3753C83.3261 42.3872 83.3553 42.3991 83.3852 42.4111C83.2667 43.1222 82.6741 43.5962 82.0815 43.5962ZM88.3037 39.6851L87.0593 42.8851H87L85.6963 39.6851H84.5111L86.4667 44.1888L85.3407 46.6777H86.4667L89.4889 39.6851H88.3037ZM78.3481 44.4259H79.4741V37.0185H78.3481V44.4259ZM33.5 39.366C34.1667 38.9811 34.1667 38.0188 33.5 37.6339L22.25 31.1387C21.5833 30.7538 20.75 31.2349 20.75 32.0047V44.9951C20.75 45.7649 21.5833 46.246 22.25 45.8611L33.5 39.366Z" fill="white"/>
</g>
<defs>
<clipPath id="clip0_3683_191346">
<rect width="80" height="23.712" fill="white" transform="translate(15 26.644)"/>
</clipPath>
</defs>
</svg>
