<svg width="140" height="77" viewBox="0 0 140 77" fill="none" xmlns="http://www.w3.org/2000/svg">
<path d="M28.4729 44.3209C28.4729 45.2892 28.0226 45.8071 26.9867 45.8071C26.4688 45.8071 25.9059 45.8071 25.3654 45.8071C24.5098 45.8071 23.8793 45.2892 23.8793 44.3209V35.2462C23.8793 34.2329 23.1587 33.5123 22.1454 33.5123H12.6653C11.652 33.5123 10.9315 34.2329 10.9315 35.2462V44.3209C10.9315 45.0865 10.2109 45.8071 9.44529 45.8071C8.67968 45.8071 8.36443 45.8071 7.824 45.8071C7.05839 45.762 6.33782 45.0865 6.33782 44.3209V33.5573C6.33782 32.0261 7.26105 31.1029 8.79227 31.1029H25.9734C27.5047 31.1029 28.4279 32.0261 28.4279 33.5573V44.3209H28.4729ZM19.7135 44.5235C19.7135 45.2892 19.1955 45.8071 18.4299 45.8071C17.6643 45.8071 16.7411 45.8071 16.3808 45.8071C15.6152 45.8071 15.0973 45.2892 15.0973 44.5235V36.3721C15.0973 35.6065 15.6152 35.0885 16.3808 35.0885H18.4299C19.1955 35.0885 19.7135 35.6065 19.7135 36.3721V44.5235ZM29.3511 27.5H5.4371C3.65819 27.5 2.21704 28.8736 2.21704 30.7201V46.2799C2.21704 48.0589 3.63567 49.5 5.4371 49.5H29.3511C31.1976 49.5 32.6162 48.0814 32.6162 46.3475V30.6975C32.5937 28.9186 31.1751 27.5 29.3511 27.5Z" fill="white"/>
<path d="M50.1655 33.6812H39.8072C39.4019 33.6812 39.0867 33.9964 39.0867 34.4018V45.368C39.0867 45.7733 39.4019 46.021 39.8072 46.021H41.3385C41.7438 46.021 42.059 45.7057 42.059 45.3004V35.978H44.8738C45.2791 35.978 45.5943 36.2933 45.5943 36.6986V45.368C45.5943 45.7733 45.9096 46.021 46.3149 46.021H47.8461C48.2515 46.021 48.4992 45.7057 48.4992 45.3004V35.978H49.7827C52.2371 35.978 51.9669 37.1039 51.9669 39.4458V45.3004C51.9669 45.7057 52.2822 45.9534 52.6875 45.9534H54.2187C54.624 45.9534 54.9393 45.6382 54.9393 45.2329V39.3782C54.8492 36.7436 55.0519 33.6812 50.1655 33.6812ZM85.1808 33.6812H83.8973C83.492 33.6812 83.2443 33.9964 83.2443 34.4018V45.3229C83.2443 45.7283 83.492 46.0435 83.8973 46.0435H85.1808C85.5861 46.0435 85.9014 45.7958 85.9014 45.3229V34.4018C85.9014 33.9964 85.6087 33.6812 85.1808 33.6812ZM85.1808 30.7764H83.8973C83.492 30.7764 83.2443 31.0916 83.2443 31.4969V31.8572C83.2443 32.2626 83.492 32.5778 83.8973 32.5778H85.1808C85.5861 32.5778 85.9014 32.3301 85.9014 31.8572V31.4969C85.9014 31.0916 85.6087 30.7764 85.1808 30.7764ZM106.866 33.6812H102.43C102.024 33.6812 101.777 33.9964 101.777 34.4018V45.368C101.777 45.7733 102.092 46.021 102.497 46.021H103.871C104.276 46.021 104.591 45.7057 104.591 45.3004V35.978H106.64C109.095 35.978 108.825 37.1039 108.825 39.4458V45.3004C108.825 45.7057 109.14 45.9534 109.545 45.9534H110.964C111.369 45.9534 111.684 45.6382 111.684 45.2329V39.3782C111.549 36.7436 111.752 33.6812 106.866 33.6812ZM62.3477 33.4785C57.5514 33.4785 56.6957 36.2933 56.6957 40.0087C56.6957 43.5665 57.6189 46.2237 62.4603 46.2237C64.7571 46.2237 67.4592 45.6607 67.8646 43.2063C67.9096 42.6883 67.752 42.6883 67.2115 42.6883H65.8379C65.3876 42.6883 65.32 42.846 65.23 43.1387C64.8697 43.9944 63.6537 44.152 62.6404 44.152C60.2535 44.152 59.623 43.1837 59.623 40.9319V40.6842H67.4367C67.752 40.6842 67.9997 40.4816 67.9997 40.1213C67.9546 36.2933 67.3016 33.4785 62.3477 33.4785ZM59.5554 38.6351C59.5554 36.8562 59.9157 35.6177 62.3702 35.6177C64.9597 35.6177 65.1849 36.7436 65.1849 38.6351H59.5554ZM131.275 33.9064H129.496V32.0149C129.496 31.6095 129.338 31.3618 128.933 31.3618H127.56C127.154 31.3618 126.839 31.6095 126.839 32.0149V42.1704C126.839 44.9176 127.852 46.1561 130.712 46.1561C130.757 46.1561 131.23 46.1561 131.275 46.1561C131.523 46.1561 131.725 45.9985 131.725 45.7057V44.2871C131.725 44.0394 131.523 43.8368 131.275 43.8368C129.901 43.8368 129.496 43.1162 129.496 41.9903V36.0681H131.275C131.523 36.0681 131.725 35.9105 131.725 35.6177V34.4018C131.68 34.109 131.545 33.9064 131.275 33.9064ZM94.0079 33.4785C91.5084 33.4785 89.2566 33.9964 88.6035 36.2933C88.4459 36.8112 88.491 37.0589 89.2115 37.0589H90.6302C91.0355 37.0589 91.0805 36.9463 91.2832 36.541C91.6435 35.8204 92.4091 35.5727 93.8277 35.5727C95.9219 35.5727 96.3272 36.4959 96.3722 37.7119V38.4325H93.2648C90.6752 38.4325 88.0631 38.6351 88.0631 42.2155C88.0631 45.1653 89.9096 46.1336 92.8144 46.1336C94.5483 46.1336 95.6291 45.6832 96.4398 44.805C96.6424 45.5706 97.2955 46.021 97.8584 46.021H98.2637C98.6691 46.021 98.9843 45.7733 98.9843 45.3004V37.9145C99.0519 34.8071 97.2729 33.4785 94.0079 33.4785ZM96.4173 41.6976C96.2146 43.0261 95.404 43.8818 93.1071 43.8818C91.1706 43.8818 90.7202 43.1612 90.7202 42.1479C90.7202 40.8194 91.2832 40.414 93.0171 40.414H96.4398V41.6976H96.4173ZM80.0467 30.7764H78.8758C78.4705 30.7764 78.2228 31.0916 78.2228 31.4969V34.5143C77.6148 34.109 76.3313 33.6587 75.363 33.5911C71.0846 33.4335 69.5984 36.3383 69.5984 39.8061C69.5984 43.8818 71.3773 46.1336 74.8451 46.1336C75.971 46.1336 77.5473 45.6832 78.4029 44.9627C78.6506 45.5706 79.2136 46.0435 79.7765 46.0435H80.0918C80.4971 46.0435 80.8124 45.7958 80.8124 45.3229V31.4969C80.7448 31.0466 80.4971 30.7764 80.0467 30.7764ZM78.2003 41.7426C78.2003 42.6658 76.9843 43.7917 75.3855 43.7917C72.9311 43.7917 72.1655 42.6208 72.1655 39.8061C72.1655 36.9012 73.0887 35.7753 75.3855 35.7753C76.9168 35.7753 78.2003 36.3833 78.2003 37.9145V41.7426ZM119.295 33.4785C114.499 33.4785 113.779 36.2933 113.779 40.0087C113.779 43.5665 114.544 46.2237 119.34 46.2237C121.637 46.2237 124.137 45.6607 124.542 43.2063C124.587 42.6883 124.43 42.6883 123.889 42.6883H122.561C122.11 42.6883 122.043 42.846 121.953 43.1387C121.592 43.9944 120.534 44.152 119.498 44.152C117.111 44.152 116.593 43.1837 116.593 40.9319V40.6842H124.249C124.565 40.6842 124.812 40.4816 124.812 40.1213C124.7 36.2482 124.137 33.4785 119.295 33.4785ZM116.593 38.6351C116.593 36.8562 116.841 35.6177 119.295 35.6177C121.885 35.6177 121.998 36.7436 121.998 38.6351H116.593ZM133.617 44.0845H134.27V46.021H134.518V44.0845H135.171V43.8368H133.594L133.617 44.0845ZM137.445 43.8368L136.792 45.6157L136.139 43.8368H135.779V46.021H136.026V44.1745L136.679 46.021H136.882L137.535 44.2421V46.0885H137.783V43.9043L137.445 43.8368Z" fill="white"/>
</svg>
