<svg width="110" height="77" viewBox="0 0 110 77" fill="none" xmlns="http://www.w3.org/2000/svg">
<path fill-rule="evenodd" clip-rule="evenodd" d="M61.066 41.9651H52.9381V32.0936H61.066V34.7602H56.7712V35.9012H60.8096V38.0806H56.7712V39.2985H61.066V41.9651ZM70.1167 41.9651H61.989V32.0936H70.1167V34.7602H65.8224V35.9012H69.8604V38.0806H65.8224V39.2985H70.1167V41.9651ZM99.6156 41.9651C99.062 40.4557 98.2875 38.845 97.2453 37.0397C98.4641 36.6823 99.1927 35.914 99.1927 34.7346C99.1927 32.9398 97.5391 32.0936 94.924 32.0936H89.5391V41.9651H93.3854V37.8818C94.2396 39.3209 94.8693 40.6789 95.2828 41.9651H99.6156ZM93.3854 36.5037V34.7602H94.7187C95.2828 34.7602 95.6031 35.0679 95.6031 35.632C95.6031 36.196 95.2828 36.5037 94.7187 36.5037H93.3854ZM88.6161 41.9651H80.4885V32.0936H88.6161V34.7602H84.3213V35.9012H88.3599V38.0806H84.3213V39.2985H88.6161V41.9651ZM71.0401 34.7602H75.0083C73.362 36.1073 72.0068 37.6332 70.963 39.2985V41.9651H79.6937V39.2985H75.3297C76.3297 37.8437 77.7271 36.395 79.6937 34.7602V32.0936H71.0401V34.7602ZM42.1694 32.0937H47.1179C50.1819 32.0937 52.3485 34.1321 52.3485 37.0294C52.3485 39.9268 50.1819 41.9651 47.1179 41.9651H42.1694V32.0937ZM46.0154 39.2986H46.9128C47.8743 39.2986 48.3871 38.6576 48.3871 37.0294C48.3871 35.4013 47.8743 34.7603 46.9128 34.7603H46.0154V39.2986Z" fill="white"/>
<path fill-rule="evenodd" clip-rule="evenodd" d="M31.3518 29.8141C31.5831 28.4735 31.9225 27.6305 32.2984 27.6289H32.2993C33.0003 27.6313 33.5686 30.5549 33.5686 34.1645C33.5686 37.7741 32.9995 40.7002 32.2976 40.7002C32.0099 40.7002 31.7445 40.2033 31.5307 39.3708C31.1929 42.4184 30.4918 44.5135 29.6803 44.5135C29.0524 44.5135 28.4888 43.255 28.1105 41.2702C27.8522 45.0449 27.202 47.7229 26.4421 47.7229C25.9652 47.7229 25.5305 46.6617 25.2086 44.9338C24.8215 48.5007 23.9273 51 22.8845 51C21.8417 51 20.9459 48.5015 20.5604 44.9338C20.2409 46.6617 19.8061 47.7229 19.3268 47.7229C18.567 47.7229 17.9184 45.0449 17.6585 41.2702C17.2801 43.255 16.7182 44.5135 16.0887 44.5135C15.278 44.5135 14.5761 42.4192 14.2383 39.3708C14.0261 40.2058 13.7591 40.7002 13.4713 40.7002C12.7695 40.7002 12.2004 37.7741 12.2004 34.1645C12.2004 30.5549 12.7695 27.6289 13.4713 27.6289C13.8481 27.6289 14.1851 28.4743 14.4188 29.8141C14.7931 27.5025 15.4012 26 16.0887 26C16.905 26 17.6124 28.1249 17.947 31.2103C18.2745 28.9647 18.7712 27.5331 19.3276 27.5331C20.1073 27.5331 20.7702 30.3488 21.0159 34.2765C21.4776 32.2627 22.1461 30.9994 22.8861 30.9994C23.6261 30.9994 24.2945 32.2635 24.7555 34.2765C25.0019 30.3488 25.664 27.5331 26.4437 27.5331C26.9993 27.5331 27.4953 28.9647 27.8244 31.2103C28.1582 28.1249 28.8656 26 29.6819 26C30.367 26 30.9774 27.5033 31.3518 29.8141ZM10.3843 33.5217C10.3843 31.9081 10.707 30.5997 11.1052 30.5997C11.5034 30.5997 11.8261 31.9081 11.8261 33.5217C11.8261 35.1353 11.5034 36.4437 11.1052 36.4437C10.707 36.4437 10.3843 35.1353 10.3843 33.5217ZM33.9423 33.5217C33.9423 31.9081 34.265 30.5997 34.6632 30.5997C35.0614 30.5997 35.3842 31.9081 35.3842 33.5217C35.3842 35.1353 35.0614 36.4437 34.6632 36.4437C34.265 36.4437 33.9423 35.1353 33.9423 33.5217Z" fill="white"/>
</svg>
