<svg width="130" height="77" viewBox="0 0 130 77" fill="none" xmlns="http://www.w3.org/2000/svg">
<g clip-path="url(#clip0_3683_191348)">
<path d="M47.8459 46.4988H44.6114V35.0268H40.4283V32.2542H52.029V35.0268H47.8459V46.4988Z" fill="white"/>
<path d="M64.9608 46.4986H61.7069V32.2542H64.9608V46.4986Z" fill="white"/>
<path d="M122.375 43.6878H128.002V46.4991H119.122V32.2546H122.375V43.6878Z" fill="white"/>
<mask id="mask0_3683_191348" style="mask-type:luminance" maskUnits="userSpaceOnUse" x="-88" y="-220" width="540" height="699">
<path d="M-87.8161 478.95H451.711V-219.262H-87.8161V478.95Z" fill="white"/>
</mask>
<g mask="url(#mask0_3683_191348)">
<path d="M75.7927 32.2515H81.0636C84.9523 32.2515 88.8215 34.3109 88.8215 39.335C88.8215 44.0709 85.029 46.4961 81.2558 46.4961H75.7927V32.2515ZM78.9496 43.7041H80.9675C83.6819 43.7041 85.4909 42.0106 85.4909 39.3156C85.4909 36.7555 83.6625 35.0241 81.0442 35.0241H78.9496V43.7041Z" fill="white"/>
</g>
<path d="M106.876 46.4988H110.453L104.584 32.2542H101.225L95.3002 46.4988H98.7798L99.8297 43.6883H105.836L106.876 46.4988ZM100.702 41.1573L102.847 35.5866L104.973 41.1573H100.702Z" fill="white"/>
<path d="M18.6753 34.3298L14.5063 38.4996L10.3364 34.3298L14.5063 30.1616L18.6753 34.3298Z" fill="white"/>
<path d="M18.6753 42.669L14.5063 46.8389L10.3364 42.669L14.5063 38.4991L18.6753 42.669Z" fill="white"/>
<path d="M10.3366 34.3301L6.1667 38.5L1.99771 34.3301L6.1667 30.1611L10.3366 34.3301Z" fill="white"/>
<path d="M27.0136 34.3301L22.8446 38.5L18.6747 34.3301L22.8446 30.1611L27.0136 34.3301Z" fill="white"/>
</g>
<defs>
<clipPath id="clip0_3683_191348">
<rect width="127.327" height="18" fill="white" transform="translate(1.33658 29.5)"/>
</clipPath>
</defs>
</svg>
