<svg width="100" height="77" viewBox="0 0 100 77" fill="none" xmlns="http://www.w3.org/2000/svg">
<g clip-path="url(#clip0_3689_191387)">
<path d="M67.8668 29C61.3299 29 58.4079 33.0665 58.4079 38.5C58.4079 43.9335 61.3876 48 67.8668 48C74.346 48 77.3373 43.2848 77.3373 38.5C77.3373 33.7152 74.4037 29 67.8668 29ZM67.8668 44.1884C64.3096 44.1884 62.8197 41.1646 62.8197 38.5C62.8197 35.8354 64.4482 32.8695 67.8668 32.8695C71.2739 32.8695 72.9139 35.8238 72.9139 38.5C72.9139 41.1646 71.424 44.1884 67.8668 44.1884ZM21.1959 29.6256H18.0892C16.6917 29.6256 16.0218 29.9848 15.2249 30.8421L9.02293 37.2024V30.1817C9.02293 29.9152 8.86124 29.672 8.53786 29.672H5.11925C4.77277 29.6604 4.61108 29.8805 4.61108 30.1817V46.9573C4.61108 47.1774 4.79587 47.3512 5.00376 47.3512H8.6187C8.83814 47.3512 9.02293 47.1774 9.02293 46.9573V39.786L15.4097 46.6445C15.9641 47.2006 16.8303 47.4555 17.9044 47.4555H21.0227C22.0506 47.4555 21.6695 46.8646 21.6695 46.8646L13.6658 38.5579L21.6926 30.2165C21.7041 30.2165 22.2238 29.6256 21.1959 29.6256ZM39.5825 29.6256H36.4757C35.0667 29.6256 34.4084 29.9848 33.5999 30.8537L27.4095 37.214V30.1817C27.4095 29.9152 27.2478 29.672 26.9244 29.672H23.5058C23.1709 29.672 22.9976 29.8805 22.9976 30.1817V46.9573C22.9976 47.1774 23.1824 47.3512 23.3903 47.3512H27.0052C27.2247 47.3512 27.4095 47.1774 27.4095 46.9573V39.786L33.7963 46.6445C34.3506 47.2006 35.2168 47.4555 36.2909 47.4555H39.4092C40.4371 47.4555 40.056 46.8646 40.056 46.8646L32.0523 38.5463L40.0791 30.2049C40.0791 30.2165 40.6104 29.6256 39.5825 29.6256Z" fill="white"/>
<path d="M95.3427 46.8183L89.2215 38.3379L94.9269 30.2165C94.9269 30.2165 95.4582 29.6257 94.4187 29.6257H91.4275C90.1224 29.6257 89.5565 29.6372 88.9444 30.5409L86.1956 34.8043L83.3545 30.483C82.7077 29.6952 81.957 29.6257 80.6288 29.6257H77.9147C76.8753 29.6257 77.3835 30.2165 77.3835 30.2165L83.239 38.3379L77.0023 46.8647C77.0023 46.8647 76.6212 47.4555 77.6491 47.4555H80.4094C81.2294 47.4555 82.3497 47.583 82.9849 46.7373C82.9965 46.7257 86.1841 41.9409 86.1841 41.9409C86.1841 41.9409 89.3255 46.6446 89.337 46.6562C89.9722 47.5251 91.0348 47.4555 91.8548 47.4555H94.592C95.6545 47.4671 95.3427 46.8183 95.3427 46.8183ZM42.3197 29.5562H50.7045C54.6197 29.5562 56.2366 31.8964 56.2366 34.1092C56.2366 35.9281 54.9316 37.4458 53.4186 38.1409C55.4282 38.9403 56.9065 40.0873 56.9065 42.7866C56.9065 45.7641 54.7814 47.444 51.1434 47.444H42.2273C41.8924 47.444 41.6614 47.2007 41.6614 46.8531V30.2165C41.6729 29.7994 41.9386 29.5562 42.3197 29.5562ZM48.8913 36.8202C50.6237 36.8202 51.5476 36.4031 51.5476 34.8854V34.8043C51.5476 33.6342 50.7045 33.0665 48.7642 33.0665L46.3042 33.1129V36.8318H48.8913V36.8202ZM49.2262 44.1074C51.282 44.1074 52.0442 43.4238 52.0442 42.1031V42.0568C52.0442 40.6202 51.1203 39.9366 49.3648 39.9366H46.3042V44.0263L49.2262 44.1074Z" fill="white"/>
</g>
<defs>
<clipPath id="clip0_3689_191387">
<rect width="90.7778" height="19" fill="white" transform="translate(4.61108 29)"/>
</clipPath>
</defs>
</svg>
