<svg width="110" height="77" viewBox="0 0 110 77" fill="none" xmlns="http://www.w3.org/2000/svg">
<path d="M67.2236 36.6997C65.8339 36.6997 64.6336 37.3314 64.1282 38.3421L64.0019 38.5948L63.8124 36.9524H61.2224V50.6605H63.9387V44.5961L64.1282 44.9119C64.6336 45.9227 65.8339 46.5544 67.2236 46.5544C69.8768 46.5544 71.8983 44.4697 71.8983 41.6902C71.8983 38.9107 69.8768 36.6997 67.2236 36.6997ZM66.6551 43.9012C65.3285 43.9012 64.2546 42.8905 64.2546 41.5639C64.2546 40.1741 65.2653 39.2265 66.6551 39.2265C68.0448 39.2265 69.1188 40.2373 69.1188 41.5639C69.1188 42.8905 68.0448 43.9012 66.6551 43.9012ZM72.4037 43.3326H75.12C75.2464 43.9012 75.9412 44.217 76.8888 44.217C77.5205 44.217 78.1522 44.0275 78.1522 43.5222C78.1522 43.0168 77.6469 42.8273 76.1939 42.4483C76.0044 42.3851 75.8149 42.3219 75.5622 42.2587C73.5407 41.6902 72.5932 40.8058 72.5932 39.416C72.5932 38.0263 73.9198 36.5733 76.3834 36.5733C78.7208 36.5733 80.3632 37.7736 80.4896 39.5424H77.7732C77.71 38.9738 76.952 38.7843 76.5098 38.7843C75.9412 38.7843 75.3727 38.9738 75.3727 39.416C75.3727 39.7951 75.6886 39.9214 77.0152 40.3004C77.331 40.4268 77.6469 40.4899 78.0891 40.6163C80.0474 41.1848 80.9949 42.1956 80.9949 43.5222C80.9949 45.4805 78.9103 46.3017 76.8888 46.3017C74.1093 46.428 72.4668 45.3541 72.4037 43.3326ZM101.841 42.5114V46.2385H99.1251V36.8892H101.715L101.841 37.8999L101.968 37.7736C102.599 37.0787 103.231 36.6997 103.926 36.6997C104.305 36.6997 104.684 36.826 105 37.0155L104.621 39.3529C104.368 39.2265 104.052 39.1634 103.737 39.1634C102.473 39.2265 101.841 40.3636 101.841 42.5114ZM88.0701 39.3529H85.796V46.2385H83.0796V39.3529H81.4371V36.826H83.0796V33.9833H85.796V36.826H88.0701V39.3529ZM97.988 41.6902C97.988 38.7843 95.9665 36.6997 93.187 36.6997C90.4074 36.6997 88.386 38.7212 88.386 41.5007C88.386 44.3434 90.4706 46.428 93.3133 46.428C95.9033 46.428 97.4195 44.6592 97.7353 43.3326L95.3348 43.08C94.8926 43.7117 94.1346 44.0275 93.3133 44.0275C91.734 44.0275 91.1655 43.1431 91.1023 42.3851V42.2587H97.988V41.6902ZM91.1655 40.5531V40.4268C91.2287 39.6055 92.0499 38.9738 93.187 38.9738C94.4504 38.9738 95.2085 39.7319 95.2085 40.4268V40.5531H91.1655ZM57.1162 36.8892L56.9267 38.5316L56.8004 38.279C56.295 37.2682 55.0948 36.6365 53.705 36.6365C51.0518 36.6365 49.0303 38.7212 49.0303 41.5007C49.0303 44.2802 51.0518 46.3649 53.705 46.3649C55.0316 46.3649 56.295 45.7332 56.8004 44.7224L56.9267 44.4697L57.1162 46.1122H59.7063V36.8892H57.1162ZM54.2104 43.9012C52.8206 43.9012 51.7467 42.8905 51.7467 41.5639C51.7467 40.1741 52.8206 39.2265 54.2104 39.2265C55.5369 39.2265 56.6109 40.2373 56.6109 41.5639C56.6109 42.8905 55.6001 43.9012 54.2104 43.9012ZM45.1137 46.2385L38.6702 37.4577V46.2385H35.9539V33.0357H38.7334L45.1769 41.8165V33.0357H47.8932V46.2385H45.1137ZM27.2994 30.3826C27.0467 30.3826 26.7941 30.3826 26.6045 30.4457H26.5414L26.4782 30.3826C24.4567 27.8557 21.2982 26.3396 18.0764 26.3396C14.8547 26.3396 11.633 27.8557 9.67467 30.4457L9.6115 30.5089H9.54833C9.29564 30.4457 9.04296 30.4457 8.85344 30.4457H7.33733V33.0357L7.27416 33.0989C5.8844 33.7306 5 35.1204 5 36.6365C5 38.1526 5.8844 39.5424 7.27416 40.1741H7.33733V40.2373C7.40051 45.9227 12.1383 50.5973 17.9501 50.5973C23.7618 50.5973 28.5629 45.9227 28.5629 40.2373V40.1741L28.626 40.1109C30.0158 39.416 30.9002 38.0263 30.9002 36.5733C30.9002 35.0572 30.0158 33.6675 28.626 33.0357L28.5629 32.9726V30.3826H27.2994ZM12.5174 31.267C14.0335 29.814 16.055 28.9928 18.1396 28.9928C20.2243 28.9928 22.2457 29.814 23.7618 31.267L23.825 31.3301L23.6987 31.3933C23.3196 31.646 22.9406 31.8355 22.5616 32.1513L22.4984 32.2145L22.4352 32.1513C21.4245 31.646 19.9084 31.0774 18.0764 31.0774C16.3076 31.0774 14.7284 31.646 13.7176 32.1513L13.6545 32.2145L13.5913 32.1513C13.2123 31.8987 12.8332 31.646 12.4542 31.3933L12.2647 31.3301L12.5174 31.267ZM25.8465 40.1109C25.8465 44.2802 22.3721 47.6915 18.0764 47.6915C13.7808 47.6915 10.3696 44.2802 10.3696 40.1109V33.5411L10.4959 33.6043C11.8225 33.9201 13.1491 35.3731 13.4649 35.7521C13.7808 35.3731 15.4232 33.9833 18.2028 33.9833C20.9823 33.9833 22.5616 35.4362 22.9406 35.7521C23.2565 35.3731 24.5199 33.9201 25.9097 33.6043L26.036 33.5411L25.8465 40.1109Z" fill="white"/>
</svg>
