<svg width="72" height="77" viewBox="0 0 72 77" fill="none" xmlns="http://www.w3.org/2000/svg">
<path d="M23.6495 27.3925C25.572 27.1169 27.5701 27.3307 29.3751 28.0569C32.0226 29.0938 34.227 31.1919 35.4057 33.7775C36.3963 35.9213 36.6563 38.3825 36.1838 40.6925C35.722 42.9119 34.567 44.9857 32.9057 46.53C32.8301 46.6063 32.7351 46.6875 32.752 46.8075C32.7451 47.6338 32.7532 48.46 32.7501 49.2863C31.7226 49.1238 30.707 48.8919 29.6826 48.7132C29.4338 48.7125 29.2138 48.8588 28.9801 48.9275C27.2726 49.5363 25.4145 49.7082 23.6226 49.4425C21.4545 49.1257 19.3907 48.1432 17.7751 46.6644C16.3288 45.3538 15.2357 43.6569 14.647 41.7963C13.9076 39.4707 13.9526 36.8988 14.7963 34.6082C15.4651 32.7582 16.6407 31.0969 18.1545 29.8425C19.7145 28.5413 21.6382 27.6825 23.6495 27.3925ZM28.8688 29.5613C29.1463 29.7707 29.452 29.9388 29.732 30.1444C30.6688 30.8157 31.5451 31.575 32.3313 32.4188C33.1157 33.2544 33.8032 34.1757 34.4395 35.1275C33.9026 33.0938 32.582 31.2288 30.7132 30.2207C30.1338 29.9175 29.5226 29.6463 28.8688 29.5613ZM29.0376 30.9338C29.2632 31.1182 29.5176 31.2619 29.752 31.4332C30.7707 32.1713 31.6795 33.0594 32.4476 34.055C32.7057 34.3875 32.9276 34.7457 33.1845 35.0794C32.9176 34.075 32.3995 33.1344 31.677 32.3863C30.9601 31.6682 30.0457 31.1107 29.0376 30.9338ZM28.9326 32.2563C29.6601 32.7644 30.3801 33.3038 30.9445 33.9963C31.2851 34.3682 31.5676 34.7863 31.8663 35.1907C31.7238 34.7088 31.5288 34.2375 31.2407 33.8238C30.7076 33.0344 29.8732 32.4382 28.9326 32.2563ZM24.6532 32.8494C23.6713 32.9569 22.7163 33.3313 21.9263 33.9257C20.9151 34.6688 20.1726 35.7688 19.8551 36.9825C19.5557 38.1057 19.6138 39.325 20.032 40.4113C20.4226 41.4382 21.122 42.3463 22.0195 42.9807C22.9688 43.6675 24.142 44.0313 25.312 44.0213C26.5201 44.0175 27.7232 43.6038 28.6782 42.8638C29.7782 42.0338 30.5395 40.7757 30.7851 39.4213C30.982 38.3144 30.8482 37.1463 30.3807 36.1219C29.8451 34.9263 28.8745 33.9307 27.692 33.3669C26.7545 32.9113 25.6882 32.7388 24.6532 32.8494ZM16.0045 41.5588C16.2938 43.1307 17.2307 44.5369 18.4495 45.5494C19.3638 46.2819 20.4307 46.8382 21.567 47.1282C21.0307 46.7482 20.4695 46.4 19.9651 45.975C18.6701 44.9413 17.5151 43.7313 16.5601 42.3763C16.3682 42.1082 16.2076 41.8188 16.0045 41.5588ZM17.382 41.7307C17.4995 42.4275 17.8182 43.0769 18.2213 43.6519C19.0076 44.7563 20.2151 45.5257 21.5157 45.8757C21.2001 45.6194 20.8488 45.4107 20.5288 45.1594C19.3663 44.2663 18.3426 43.185 17.5482 41.9513C17.4957 41.875 17.4395 41.8019 17.382 41.7307ZM18.7445 41.7107C18.8157 42.1969 19.0513 42.6432 19.3357 43.0369C19.8901 43.7963 20.7332 44.3132 21.6332 44.5569C21.377 44.3525 21.097 44.1794 20.8382 43.9769C20.2945 43.545 19.7913 43.0607 19.3582 42.5169C19.1376 42.26 18.9763 41.9582 18.7445 41.7107Z" fill="white"/>
<path d="M40.4238 27.5968C42.7794 27.0218 45.3238 27.2212 47.5469 28.1993C49.5975 29.09 51.3651 30.6162 52.5482 32.5125C53.7263 34.3812 54.3207 36.6094 54.2325 38.8162C54.1682 40.8881 53.5007 42.935 52.3369 44.65C51.0576 46.5506 49.1782 48.0406 47.0332 48.8468C44.8794 49.6662 42.4675 49.7843 40.2413 49.1931C38.4432 48.7187 36.7675 47.785 35.425 46.4975C36.7338 44.8468 37.6432 42.88 38.0219 40.8062C38.3663 41.4643 38.7913 42.09 39.3538 42.5819C40.2369 43.3787 41.3782 43.8912 42.565 43.995C43.4957 44.085 44.4494 43.9425 45.3069 43.5656C46.5025 43.0612 47.5026 42.1181 48.09 40.9625C48.9744 39.2537 48.8869 37.085 47.8544 35.46C47.2013 34.4087 46.1919 33.5787 45.0257 33.16C43.8988 32.7381 42.635 32.7118 41.4838 33.0512C40.5344 33.3431 39.6613 33.8837 38.9913 34.6187C38.5894 35.0262 38.3051 35.5256 38.0213 36.0175C37.8182 34.9794 37.5107 33.9581 37.0582 33.0006C36.6313 32.0431 36.0551 31.1631 35.4263 30.3281C36.8263 29.0137 38.5563 28.0525 40.4238 27.5968Z" fill="white"/>
<path d="M6.56324 27.6062C8.18824 27.5925 9.81261 27.6062 11.4376 27.5994C11.6607 27.5975 11.8839 27.6006 12.1064 27.6169C12.102 32.5369 12.1064 37.4569 12.1045 42.3769C12.0926 43.8944 11.5401 45.4006 10.5645 46.5631C9.33824 48.0544 7.43386 48.9712 5.49949 48.9669C4.05636 48.9625 2.61261 48.9769 1.16949 48.9594C1.15699 47.1162 1.15949 45.2731 1.16824 43.4306C2.59324 43.4212 4.01761 43.4319 5.44199 43.4262C6.03386 43.4394 6.57761 42.9144 6.56136 42.3175C6.56449 37.4137 6.56074 32.51 6.56324 27.6062Z" fill="white"/>
<path d="M52.8514 27.6131C54.6908 27.5875 56.5321 27.6025 58.3721 27.6056C59.4183 29.4219 60.4608 31.2413 61.5021 33.0613C61.5589 33.1575 61.6196 33.2525 61.6821 33.3469C62.7802 31.4863 63.8346 29.5994 64.9158 27.7281C64.9802 27.5619 65.1683 27.6063 65.3108 27.5981C67.0458 27.6119 68.7821 27.5831 70.5171 27.6125C69.8939 28.76 69.2214 29.8813 68.5796 31.0188C67.2127 33.4138 65.8258 35.7988 64.4727 38.2C64.6539 38.6256 64.9289 39.0069 65.1477 39.415C66.6483 42.04 68.1558 44.6606 69.6577 47.2844C70.0633 48.0088 70.4952 48.7175 70.8889 49.4481C69.8639 49.4669 68.8377 49.4506 67.8127 49.4563C67.0033 49.4456 66.1921 49.4763 65.3846 49.4431C65.1702 49.2244 65.0646 48.9219 64.8996 48.6663C63.8258 46.8031 62.7721 44.9288 61.6833 43.075C61.2333 43.7944 60.8346 44.545 60.4052 45.2769C59.7996 46.3381 59.1871 47.3963 58.5808 48.4575C58.3771 48.7813 58.2277 49.1419 57.9902 49.4425C56.8908 49.4756 55.7883 49.4463 54.6877 49.4563C53.9521 49.45 53.2164 49.4694 52.4814 49.4456C52.9871 48.4956 53.5471 47.5763 54.0733 46.6375C55.4571 44.2294 56.8358 41.8188 58.2183 39.41C58.4339 39.0019 58.7096 38.6225 58.8864 38.1963C57.1796 35.1763 55.4371 32.1731 53.7158 29.16C53.4308 28.6425 53.1083 28.145 52.8514 27.6131Z" fill="white"/>
<path d="M24.8995 37.0313C25.297 36.9195 25.7533 36.9726 26.0858 37.2282C26.5258 37.5413 26.7358 38.1345 26.592 38.6545C26.4508 39.222 25.902 39.6588 25.3145 39.6451C24.7901 39.667 24.2801 39.332 24.0726 38.8545C23.8995 38.4707 23.9201 38.0032 24.1364 37.6407C24.3045 37.3532 24.5839 37.1345 24.8995 37.0313Z" fill="white"/>
</svg>
