<svg width="90" height="77" viewBox="0 0 90 77" fill="none" xmlns="http://www.w3.org/2000/svg">
<g clip-path="url(#clip0_3689_191384)">
<path d="M54.8799 36.1443C54.4755 36.4135 53.8688 36.6154 53.1274 36.6154C51.9815 36.6154 50.9031 36.4808 49.8246 36.1443C49.555 36.077 49.3528 36.0097 49.218 36.0097C49.0158 36.0097 48.9484 36.1443 48.9484 36.4135V37.0866C48.9484 37.2885 49.0158 37.4231 49.0832 37.5577C49.1506 37.6251 49.2854 37.7597 49.4876 37.827C50.5661 38.2981 51.7793 38.5001 53.1274 38.5001C54.5429 38.5001 55.6213 38.1635 56.4976 37.4904C57.3738 36.8174 57.7782 35.9424 57.7782 34.7981C57.7782 33.9904 57.576 33.3847 57.1716 32.8462C56.7672 32.3751 56.0931 31.9039 55.1495 31.5674L53.2622 30.827C52.5208 30.5577 51.9815 30.2885 51.7793 30.0193C51.5097 29.7501 51.3749 29.4808 51.3749 29.0097C51.3749 28.0001 52.1163 27.4616 53.6666 27.4616C54.5429 27.4616 55.4191 27.5962 56.228 27.8654C56.4976 27.9327 56.6998 28.0001 56.7672 28.0001C56.9694 28.0001 57.1042 27.8654 57.1042 27.5962V26.9231C57.1042 26.7212 57.0368 26.5866 56.9694 26.452C56.902 26.3174 56.7672 26.2501 56.565 26.1827C55.5539 25.8462 54.5429 25.6443 53.5318 25.6443C52.2511 25.6443 51.1727 25.9808 50.3638 26.5866C49.555 27.1924 49.1506 28.0674 49.1506 29.077C49.1506 30.6251 50.0268 31.7693 51.7793 32.4424L53.8014 33.1827C54.4755 33.452 54.8799 33.6539 55.1495 33.9231C55.4191 34.1924 55.4865 34.4616 55.4865 34.8654C55.4865 35.4039 55.2843 35.8751 54.8799 36.1443Z" fill="white"/>
<path d="M44.2975 26.4519V35.4038C43.1516 36.1442 42.0058 36.548 40.8599 36.548C40.1185 36.548 39.5792 36.3461 39.2422 35.9423C38.9052 35.5384 38.7704 34.9326 38.7704 34.0576V26.4519C38.7704 26.1153 38.6356 25.9807 38.2986 25.9807H36.8831C36.5461 25.9807 36.4113 26.1153 36.4113 26.4519V34.798C36.4113 35.9423 36.6809 36.8846 37.2875 37.4903C37.8941 38.0961 38.7704 38.4326 39.9162 38.4326C41.4665 38.4326 43.0168 37.8942 44.4997 36.8173L44.6345 37.6249C44.6345 37.8269 44.7019 37.8942 44.8367 37.9615C44.9041 38.0288 45.0389 38.0288 45.2411 38.0288H46.2522C46.5892 38.0288 46.724 37.8942 46.724 37.5576V26.4519C46.724 26.1153 46.5892 25.9807 46.2522 25.9807H44.8367C44.4323 25.9807 44.2975 26.1826 44.2975 26.4519Z" fill="white"/>
<path d="M31.4908 38.0962H32.9062C33.2433 38.0962 33.3781 37.9616 33.3781 37.6251V29.2116C33.3781 28.0674 33.1085 27.1924 32.5018 26.5866C31.8952 25.9808 31.0863 25.6443 29.9405 25.6443C28.3902 25.6443 26.7725 26.1827 25.2222 27.327C24.683 26.1827 23.672 25.6443 22.1891 25.6443C20.7062 25.6443 19.2233 26.1827 17.7404 27.1924L17.6056 26.452C17.6056 26.2501 17.5382 26.1827 17.4034 26.1154C17.336 26.0481 17.2012 26.0481 17.0664 26.0481H15.9879C15.6509 26.0481 15.5161 26.1827 15.5161 26.5193V37.6924C15.5161 38.0289 15.6509 38.1635 15.9879 38.1635H17.4034C17.7404 38.1635 17.8752 38.0289 17.8752 37.6924V28.6058C19.0211 27.9327 20.167 27.5289 21.3802 27.5289C22.0543 27.5289 22.5261 27.7308 22.7957 28.1347C23.0653 28.5385 23.2675 29.077 23.2675 29.8847V37.6251C23.2675 37.9616 23.4023 38.0962 23.7394 38.0962H25.1548C25.4918 38.0962 25.6267 37.9616 25.6267 37.6251V29.3462V28.9424C25.6267 28.8077 25.6267 28.6731 25.6267 28.6058C26.8399 27.8654 27.9858 27.5289 29.1316 27.5289C29.8057 27.5289 30.2775 27.7308 30.5471 28.1347C30.8167 28.5385 31.0189 29.077 31.0189 29.8847V37.6251C31.0189 37.9616 31.1538 38.0962 31.4908 38.0962Z" fill="white"/>
<path d="M68.2258 47.0481C60.8788 50.1443 52.8578 51.6924 45.5782 51.6924C34.7936 51.6924 24.346 48.7308 15.9206 43.8174C15.7858 43.75 15.651 43.6827 15.5162 43.6827C15.0443 43.6827 14.7747 44.2212 15.2465 44.6924C23.0654 51.7597 33.4455 56 44.9041 56C53.1274 56 62.6313 53.4424 69.1694 48.5962C70.3153 47.7885 69.3716 46.577 68.2258 47.0481Z" fill="white"/>
<path d="M68.0236 28.6731C68.6303 28 69.5739 27.6635 70.922 27.6635C71.596 27.6635 72.2701 27.7308 72.8767 27.9327C73.0789 28 73.1463 28 73.2811 28C73.4833 28 73.6181 27.8654 73.6181 27.5289V26.8558C73.6181 26.6539 73.5507 26.4519 73.4833 26.3846C73.4159 26.3173 73.2811 26.1827 73.1463 26.1154C72.2701 25.9135 71.3938 25.7115 70.585 25.7115C68.6977 25.7115 67.2822 26.25 66.2037 27.3942C65.1927 28.4712 64.6534 30.0865 64.6534 32.1058C64.6534 34.125 65.1253 35.6731 66.1363 36.75C67.1474 37.8269 68.5629 38.3654 70.4502 38.3654C71.4612 38.3654 72.4049 38.2308 73.1463 37.8942C73.3485 37.8269 73.4833 37.7596 73.5507 37.625C73.6181 37.5577 73.6181 37.3558 73.6181 37.1539V36.4808C73.6181 36.1442 73.4833 36.0096 73.2811 36.0096C73.2137 36.0096 73.0789 36.0096 72.9441 36.0769C72.2026 36.2789 71.4612 36.4135 70.7872 36.4135C69.5065 36.4135 68.5629 36.0769 67.9562 35.4039C67.3496 34.7308 67.08 33.6539 67.08 32.2404V31.9039C67.1474 30.4231 67.417 29.3462 68.0236 28.6731Z" fill="white"/>
<path d="M71.0568 53.375C74.5618 50.4135 75.5054 44.2885 74.764 43.3461C74.427 42.9423 72.8093 42.5385 70.7872 42.5385C68.6303 42.5385 66.0689 43.0096 64.1142 44.3558C63.5076 44.7596 63.6424 45.2981 64.249 45.2308C66.3385 44.9615 71.0568 44.4231 71.933 45.5C72.7419 46.5769 70.9894 51.0192 70.1805 52.9711C69.9783 53.5769 70.4501 53.7788 71.0568 53.375Z" fill="white"/>
<path d="M61.6876 25.9807H60.2721C59.9351 25.9807 59.8003 26.1153 59.8003 26.4519V37.6249C59.8003 37.9615 59.9351 38.0961 60.2721 38.0961H61.6876C62.0246 38.0961 62.1594 37.9615 62.1594 37.6249V26.4519C62.1594 26.1826 62.0246 25.9807 61.6876 25.9807Z" fill="white"/>
<path d="M62.092 21.4038C61.8224 21.1346 61.418 21 60.9461 21C60.4743 21 60.1373 21.1346 59.8677 21.4038C59.5981 21.6731 59.4633 22.0096 59.4633 22.4135C59.4633 22.8173 59.5981 23.2212 59.8677 23.4231C60.1373 23.6923 60.4743 23.8269 60.9461 23.8269C61.418 23.8269 61.755 23.6923 62.0246 23.4231C62.2942 23.1538 62.429 22.8173 62.429 22.4135C62.429 22.0096 62.3616 21.6058 62.092 21.4038Z" fill="white"/>
</g>
<defs>
<clipPath id="clip0_3689_191384">
<rect width="60" height="35" fill="white" transform="translate(15 21)"/>
</clipPath>
</defs>
</svg>
