<svg width="68" height="77" viewBox="0 0 68 77" fill="none" xmlns="http://www.w3.org/2000/svg">
<path d="M8.28247 37.1694C8.17266 37.1694 8.0855 37.2543 8.07131 37.3754L7.68646 40.2987L8.07131 43.1716C8.0855 43.2926 8.17261 43.377 8.28247 43.377C8.38883 43.377 8.47545 43.2932 8.49242 43.1726L8.94857 40.2986L8.49242 37.3748C8.47598 37.2543 8.38829 37.1694 8.28247 37.1694ZM10.4467 35.5722C10.4286 35.4466 10.3386 35.36 10.2277 35.36C10.1162 35.36 10.0239 35.4494 10.0087 35.5722C10.0087 35.5733 9.49135 40.2987 9.49135 40.2987L10.0087 44.9204C10.0234 45.0444 10.1156 45.1338 10.2277 45.1338C10.338 45.1338 10.4281 45.0466 10.4461 44.9216L11.0347 40.2987L10.4467 35.5722ZM18.599 31.2125C18.3868 31.2125 18.2113 31.3863 18.2011 31.607L17.7891 40.3026L18.2011 45.9221C18.2119 46.1417 18.3868 46.3149 18.599 46.3149C18.8101 46.3149 18.985 46.1411 18.9975 45.921V45.9227L19.4632 40.3026L18.9975 31.607C18.985 31.3863 18.8101 31.2125 18.599 31.2125ZM14.3797 34.2348C14.2167 34.2348 14.0837 34.365 14.0706 34.5387L13.6065 40.3003L14.0706 45.8746C14.083 46.0472 14.2166 46.1773 14.3797 46.1773C14.5409 46.1773 14.6739 46.0472 14.6881 45.8746L15.2156 40.3003L14.6881 34.5376C14.6739 34.365 14.5409 34.2348 14.3797 34.2348ZM22.8868 46.3144C23.15 46.3144 23.3639 46.1021 23.3747 45.8304L23.7788 40.3054L23.3753 28.7284C23.3645 28.4567 23.1505 28.2445 22.8874 28.2445C22.622 28.2445 22.4075 28.4573 22.3989 28.729L22.0407 40.3048L22.3989 45.8321C22.4074 46.1016 22.6219 46.3144 22.8868 46.3144ZM31.6651 46.3404C32.0273 46.3404 32.3262 46.0422 32.3329 45.6754L32.6148 40.3088L32.3328 26.9383C32.3266 26.5721 32.0272 26.2733 31.665 26.2733C31.3022 26.2733 31.0028 26.5716 30.9971 26.9389L30.7453 40.3043C30.7453 40.3128 30.9971 45.6788 30.9971 45.6788C31.0029 46.0421 31.3028 46.3404 31.6651 46.3404ZM27.2425 46.3195C27.5578 46.3195 27.8119 46.0665 27.8204 45.7439V45.7478L28.1633 40.3066L27.8198 28.6458C27.8113 28.3232 27.5572 28.0708 27.2419 28.0708C26.9244 28.0708 26.6703 28.3233 26.6635 28.6458L26.3585 40.3072L26.6641 45.7473C26.6709 46.0665 26.925 46.3195 27.2425 46.3195ZM16.4811 46.2685C16.6685 46.2685 16.8202 46.1185 16.8343 45.921L17.3313 40.3004L16.8343 34.9536C16.8208 34.7561 16.6691 34.6072 16.4811 34.6072C16.291 34.6072 16.1393 34.7572 16.1274 34.9559L15.6899 40.3004L16.1274 45.9205C16.1399 46.1185 16.291 46.2685 16.4811 46.2685ZM12.2952 45.9606C12.4322 45.9606 12.5431 45.8525 12.5589 45.7031L13.117 40.2992L12.5595 34.6916C12.543 34.5416 12.4321 34.4334 12.2952 34.4334C12.1565 34.4334 12.0456 34.5421 12.0314 34.6916L11.5402 40.2992L12.0314 45.702C12.045 45.852 12.1559 45.9606 12.2952 45.9606ZM29.4453 28.4517C29.1029 28.4517 28.8284 28.724 28.8216 29.0726L28.5432 40.3077L28.8216 45.7139C28.8284 46.058 29.1023 46.3302 29.4453 46.3302C29.7872 46.3302 30.06 46.0585 30.0679 45.7099V45.7144L30.3803 40.3083L30.0679 29.0714C30.06 28.724 29.7871 28.4517 29.4453 28.4517ZM20.735 46.3257C20.9716 46.3257 21.1668 46.1327 21.1781 45.8865L21.6128 40.3042L21.1781 29.6198C21.1662 29.373 20.9716 29.1806 20.735 29.1806C20.4961 29.1806 20.3015 29.3736 20.2913 29.6198L19.9064 40.3042L20.2918 45.8888C20.3014 46.1327 20.4961 46.3257 20.735 46.3257ZM25.5888 45.7988V45.7959L25.9623 40.306L25.5888 28.3391C25.5797 28.042 25.3454 27.8088 25.0561 27.8088C24.7652 27.8088 24.5309 28.0414 24.523 28.3391L24.1914 40.3054L24.5236 45.7982C24.5315 46.0925 24.7658 46.3251 25.0562 46.3251C25.346 46.3251 25.5791 46.0925 25.5888 45.7965V45.7988H25.5888ZM53.8409 33.4079C52.954 33.4079 52.1079 33.5873 51.3371 33.9105C50.822 28.0765 45.9298 23.5 39.9622 23.5C38.502 23.5 37.0785 23.7875 35.8215 24.2737C35.3331 24.4627 35.2029 24.6574 35.1984 25.0349V45.5797C35.2035 45.9759 35.5108 46.3058 35.8974 46.3449C35.9139 46.3466 53.725 46.3556 53.8405 46.3556C57.4151 46.3556 60.3135 43.4573 60.3135 39.8821C60.3134 36.3068 57.4157 33.4079 53.8409 33.4079ZM33.8751 25.0168C33.4863 25.0168 33.1671 25.336 33.1615 25.7282L32.8694 40.3105L33.162 45.6029C33.1671 45.9895 33.4864 46.3082 33.8751 46.3082C34.2628 46.3082 34.582 45.9895 34.5877 45.5973V45.6035L34.9052 40.3105L34.5877 25.7271C34.582 25.336 34.2628 25.0168 33.8751 25.0168ZM12.9138 50.4709C12.1481 50.2909 11.9409 50.1947 11.9409 49.8913C11.9409 49.6774 12.1135 49.4561 12.6308 49.4561C13.0728 49.4561 13.4181 49.6355 13.7283 49.953L14.425 49.2773C13.9694 48.8013 13.4176 48.5183 12.666 48.5183C11.7129 48.5183 10.9403 49.0565 10.9403 49.9332C10.9403 50.8851 11.5618 51.1682 12.4515 51.3747C13.3621 51.5813 13.528 51.7199 13.528 52.0307C13.528 52.3963 13.258 52.5553 12.6863 52.5553C12.224 52.5553 11.7893 52.3968 11.4509 52.0024L10.754 52.6239C11.1196 53.1621 11.8243 53.5 12.6308 53.5C13.9495 53.5 14.529 52.8791 14.529 51.9617C14.5291 50.9123 13.6801 50.6503 12.9138 50.4709ZM17.3589 48.5183C16.0413 48.5183 15.262 49.5393 15.262 51.0091C15.262 52.479 16.0413 53.4994 17.3589 53.4994C18.6765 53.4994 19.457 52.479 19.457 51.0091C19.457 49.5393 18.6765 48.5183 17.3589 48.5183ZM17.3589 52.5412C16.5796 52.5412 16.2547 51.8717 16.2547 51.0097C16.2547 50.1471 16.5795 49.4776 17.3589 49.4776C18.1394 49.4776 18.4631 50.1471 18.4631 51.0097C18.4631 51.8717 18.1394 52.5412 17.3589 52.5412ZM23.356 51.3062C23.356 52.0788 22.9757 52.5553 22.3622 52.5553C21.7481 52.5553 21.3756 52.0652 21.3756 51.2927V48.5936H20.409V51.3063C20.409 52.7133 21.1963 53.5 22.3621 53.5C23.5903 53.5 24.3221 52.6923 24.3221 51.2927V48.5936H23.356V51.3062ZM28.4894 50.6367C28.4894 50.9061 28.5029 51.5129 28.5029 51.6923C28.4407 51.5678 28.2822 51.3266 28.165 51.1467L26.453 48.593H25.5287V53.4242H26.4813V51.2984C26.4813 51.029 26.4677 50.4222 26.4677 50.2428C26.5294 50.3667 26.6889 50.6084 26.8056 50.7884L28.5793 53.4242H29.4418V48.593H28.4893L28.4894 50.6367ZM32.1948 48.5936H30.6837V53.4247H32.1251C33.3675 53.4247 34.5962 52.7065 34.5962 51.0091C34.5962 49.2422 33.5746 48.5936 32.1948 48.5936ZM32.1251 52.4863H31.6498V49.5325H32.1603C33.1819 49.5325 33.603 50.0221 33.603 51.0091C33.6029 51.8926 33.14 52.4863 32.1251 52.4863ZM37.584 49.477C38.0187 49.477 38.2948 49.6706 38.4674 50.0017L39.3645 49.588C39.0606 48.9603 38.5082 48.5183 37.5975 48.5183C36.3359 48.5183 35.4519 49.5393 35.4519 51.0091C35.4519 52.5339 36.3002 53.4994 37.5629 53.4994C38.4396 53.4994 39.0192 53.0925 39.3503 52.4093L38.5364 51.926C38.2811 52.3545 38.0253 52.5407 37.5906 52.5407C36.8662 52.5407 36.4451 51.8779 36.4451 51.0091C36.4447 50.1126 36.8601 49.477 37.584 49.477ZM41.1671 48.5936H40.201V53.4247H43.1045V52.4716H41.1671V48.5936ZM45.6496 48.5183C44.3309 48.5183 43.5516 49.5393 43.5516 51.0091C43.5516 52.479 44.3309 53.4994 45.6496 53.4994C46.9672 53.4994 47.7471 52.479 47.7471 51.0091C47.7472 49.5393 46.9672 48.5183 45.6496 48.5183ZM45.6496 52.5412C44.8692 52.5412 44.5454 51.8717 44.5454 51.0097C44.5454 50.1471 44.8692 49.4776 45.6496 49.4776C46.4285 49.4776 46.7527 50.1471 46.7527 51.0097C46.7527 51.8717 46.4285 52.5412 45.6496 52.5412ZM51.6456 51.3062C51.6456 52.0788 51.2669 52.5553 50.6529 52.5553C50.0377 52.5553 49.6658 52.0652 49.6658 51.2927V48.5936H48.6997V51.3063C48.6997 52.7133 49.4864 53.5 50.6529 53.5C51.881 53.5 52.6123 52.6923 52.6123 51.2927V48.5936H51.6456V51.3062ZM55.3306 48.5936H53.82V53.4247H55.2616C56.5044 53.4247 57.732 52.7065 57.732 51.0091C57.732 49.2422 56.711 48.5936 55.3306 48.5936ZM55.2616 52.4863H54.7856V49.5325H55.2967C56.3171 49.5325 56.7381 50.0221 56.7381 51.0091C56.7382 51.8926 56.2758 52.4863 55.2616 52.4863Z" fill="white"/>
</svg>
