<svg width="50" height="77" viewBox="0 0 50 77" fill="none" xmlns="http://www.w3.org/2000/svg">
<path d="M29.4622 24.8485C28.3599 26.0606 26.6276 27.1212 24.8953 26.9697C24.5804 25.1515 25.5252 23.3333 26.4701 22.2727C27.5725 20.9091 29.4622 20 31.037 20C31.1945 21.6667 30.5646 23.4848 29.4622 24.8485ZM31.037 27.2727C31.9819 27.2727 34.8166 27.5758 36.7063 30.303C36.5488 30.4545 33.3992 32.2727 33.3992 36.0606C33.3992 40.6061 37.4937 42.1212 37.4937 42.1212C37.4937 42.2727 36.8638 44.2424 35.4465 46.3636C34.1866 48.1818 32.7693 50 30.7221 50C28.6748 50 28.0449 48.7879 25.6827 48.7879C23.3205 48.7879 22.5331 50 20.6434 50C18.5961 50 17.0213 48.0303 15.7615 46.2121C13.0843 42.4242 11.0371 35.6061 13.8717 31.0606C15.1316 28.7879 17.6512 27.2727 20.1709 27.2727C22.2182 27.2727 24.1079 28.6364 25.2103 28.6364C26.3126 28.6364 28.5174 27.1212 31.037 27.2727Z" fill="white"/>
</svg>
