<svg width="110" height="77" viewBox="0 0 110 77" fill="none" xmlns="http://www.w3.org/2000/svg">
<path d="M22.7966 24.5C15.1771 24.5 9 30.768 9 38.4997C9 46.2324 15.1771 52.5 22.7966 52.5C30.4164 52.5 36.5931 46.2324 36.5931 38.4997C36.5931 30.7685 30.4167 24.5007 22.7964 24.5007L22.7966 24.5ZM29.1236 44.6917C28.8758 45.1041 28.3463 45.2333 27.9412 44.982C24.7014 42.9727 20.6235 42.5188 15.8211 43.6321C15.3583 43.7398 14.897 43.4454 14.7916 42.9759C14.6856 42.5063 14.9744 42.0382 15.4384 41.9312C20.6939 40.712 25.2019 41.2368 28.8384 43.4917C29.2437 43.7441 29.3722 44.2807 29.1234 44.692L29.1236 44.6917ZM30.8122 40.8802C30.5002 41.3939 29.8382 41.5551 29.3326 41.2396C25.625 38.9269 19.9713 38.257 15.5848 39.6081C15.016 39.7825 14.4151 39.4572 14.2425 38.8809C14.0711 38.3037 14.3919 37.6951 14.9598 37.5196C19.9703 35.9769 26.1991 36.7242 30.4579 39.3798C30.9636 39.6957 31.1234 40.3678 30.8121 40.8804L30.8122 40.8802ZM30.9572 36.9107C26.51 34.2307 19.1744 33.9843 14.929 35.2918C14.2472 35.5016 13.5263 35.1111 13.3197 34.4193C13.1131 33.7272 13.4976 32.9961 14.1799 32.7858C19.0533 31.2845 27.1548 31.5746 32.2742 34.6585C32.8874 35.0278 33.0886 35.8314 32.7251 36.4528C32.3627 37.0751 31.5686 37.2802 30.9574 36.9107H30.9572ZM46.5359 37.4243C44.1538 36.8479 43.7297 36.4433 43.7297 35.5932C43.7297 34.7901 44.4748 34.2496 45.5829 34.2496C46.6571 34.2496 47.7222 34.66 48.8389 35.5049C48.8727 35.5305 48.915 35.5407 48.9567 35.534C48.9984 35.5277 49.0353 35.5044 49.0596 35.4695L50.2228 33.8057C50.2705 33.7372 50.2575 33.6428 50.1931 33.5904C48.8641 32.5083 47.3675 31.9822 45.6182 31.9822C43.0462 31.9822 41.2496 33.5485 41.2496 35.7895C41.2496 38.1926 42.7994 39.0436 45.4775 39.7004C47.757 40.2332 48.1417 40.6796 48.1417 41.4775C48.1417 42.3617 47.3637 42.9114 46.1118 42.9114C44.7213 42.9114 43.5872 42.4361 42.3185 41.3212C42.287 41.2936 42.2438 41.2811 42.204 41.2834C42.162 41.2869 42.1236 41.3067 42.0969 41.3393L40.7927 42.9142C40.738 42.9796 40.745 43.0772 40.8082 43.1337C42.2844 44.471 44.0999 45.1773 46.0591 45.1773C48.8307 45.1773 50.6216 43.6406 50.6216 41.2622C50.6266 39.2544 49.4421 38.1427 46.5408 37.4265L46.5359 37.4243ZM56.892 35.0403C55.6906 35.0403 54.7053 35.5205 53.8927 36.5043V35.3969C53.8927 35.3095 53.8229 35.2383 53.7369 35.2383H51.6039C51.5177 35.2383 51.448 35.3095 51.448 35.3969V47.7015C51.448 47.7889 51.5177 47.8602 51.6039 47.8602H53.7369C53.8229 47.8602 53.8927 47.7889 53.8927 47.7015V43.8175C54.7054 44.743 55.691 45.1952 56.892 45.1952C59.1241 45.1952 61.3839 43.4515 61.3839 40.1184C61.3871 36.7843 59.1268 35.0402 56.8944 35.0402L56.892 35.0403ZM58.9035 40.1184C58.9035 41.8157 57.8732 43.0002 56.3979 43.0002C54.9394 43.0002 53.8392 41.7619 53.8392 40.1184C53.8392 38.475 54.9394 37.2366 56.3979 37.2366C57.8493 37.2364 58.9037 38.4481 58.9037 40.1182L58.9035 40.1184ZM67.1756 35.0403C64.3009 35.0403 62.0488 37.2865 62.0488 40.1546C62.0488 42.9915 64.2854 45.2141 67.1403 45.2141C70.0252 45.2141 72.2843 42.9754 72.2843 40.1183C72.2843 37.2712 70.0404 35.0407 67.1754 35.0407L67.1756 35.0403ZM67.1756 43.017C65.6465 43.017 64.4938 41.7704 64.4938 40.1175C64.4938 38.4576 65.6067 37.2531 67.1403 37.2531C68.6792 37.2531 69.8397 38.4997 69.8397 40.1538C69.8397 41.8134 68.7194 43.017 67.1757 43.017H67.1756ZM78.423 35.2383H76.0758V32.8032C76.0758 32.7159 76.0063 32.6447 75.9201 32.6447H73.7874C73.7011 32.6447 73.6311 32.7159 73.6311 32.8032V35.2383H72.6055C72.5197 35.2383 72.4502 35.3095 72.4502 35.3969V37.2571C72.4502 37.3444 72.5197 37.4158 72.6055 37.4158H73.6311V42.229C73.6311 44.1741 74.5852 45.1603 76.4668 45.1603C77.2319 45.1603 77.8666 44.9999 78.4648 44.6557C78.5134 44.6281 78.5436 44.575 78.5436 44.5185V42.7471C78.5436 42.6924 78.5156 42.6407 78.4694 42.6122C78.423 42.5826 78.3652 42.5811 78.3175 42.605C77.9066 42.8148 77.5094 42.9116 77.0654 42.9116C76.3811 42.9116 76.0758 42.5963 76.0758 41.8896V37.4166H78.423C78.5091 37.4166 78.5785 37.3454 78.5785 37.258V35.398C78.5818 35.3105 78.5126 35.2393 78.4253 35.2393L78.423 35.2383ZM86.6011 35.2478V34.9487C86.6011 34.0689 86.9336 33.6765 87.6792 33.6765C88.1239 33.6765 88.4811 33.7661 88.8811 33.9015C88.9303 33.9173 88.9817 33.9094 89.0218 33.8795C89.063 33.8495 89.0862 33.8016 89.0862 33.7507V31.9268C89.0862 31.8571 89.042 31.7954 88.9758 31.7749C88.5532 31.6473 88.0125 31.5164 87.203 31.5164C85.2329 31.5164 84.1915 32.6422 84.1915 34.7708V35.2289H83.1668C83.0808 35.2289 83.0102 35.3001 83.0102 35.3874V37.2571C83.0102 37.3444 83.0808 37.4158 83.1668 37.4158H84.1915V44.8399C84.1915 44.9274 84.261 44.9986 84.347 44.9986H86.48C86.5662 44.9986 86.6364 44.9274 86.6364 44.8399V37.4163H88.6279L91.6785 44.8386C91.3322 45.6185 90.9917 45.7736 90.5268 45.7736C90.151 45.7736 89.7552 45.6598 89.3506 45.4351C89.3126 45.4139 89.2674 45.4103 89.2264 45.4232C89.1857 45.4378 89.1514 45.4685 89.1341 45.5086L88.4112 47.1181C88.3768 47.1941 88.4063 47.2834 88.4784 47.3229C89.2331 47.7376 89.9144 47.9147 90.7564 47.9147C92.3314 47.9147 93.202 47.1702 93.9694 45.1674L97.6698 35.4645C97.6884 35.4157 97.6828 35.3605 97.6533 35.3172C97.624 35.2742 97.5767 35.2483 97.5249 35.2483H95.3045C95.2379 35.2483 95.1784 35.2913 95.1567 35.3546L92.882 41.9478L90.3905 35.3503C90.3678 35.2889 90.3095 35.2483 90.2449 35.2483H86.6006L86.6011 35.2478ZM81.8596 35.2383H79.7266C79.6405 35.2383 79.5703 35.3095 79.5703 35.3969V44.8399C79.5703 44.9274 79.6405 44.9986 79.7266 44.9986H81.8596C81.9456 44.9986 82.016 44.9274 82.016 44.8399V35.3976C82.016 35.3767 82.012 35.3561 82.0042 35.3368C81.9963 35.3175 81.9848 35.3 81.9702 35.2853C81.9557 35.2705 81.9384 35.2588 81.9194 35.2509C81.9004 35.2429 81.88 35.2389 81.8595 35.239L81.8596 35.2383ZM80.8052 30.9387C79.9603 30.9387 79.2746 31.6328 79.2746 32.4902C79.2746 33.3482 79.9604 34.0431 80.8053 34.0431C81.6499 34.0431 82.3349 33.3482 82.3349 32.4902C82.3349 31.6329 81.6496 30.9387 80.8061 30.9387H80.8052ZM99.4911 38.2744C98.6469 38.2744 97.99 37.5864 97.99 36.7511C97.99 35.9157 98.6555 35.2199 99.499 35.2199C100.343 35.2199 101 35.9077 101 36.7424C101 37.5778 100.334 38.2744 99.4909 38.2744H99.4911ZM99.4993 35.3714C98.7304 35.3714 98.1487 35.9916 98.1487 36.7511C98.1487 37.5102 98.7263 38.1221 99.4916 38.1221C100.26 38.1221 100.843 37.5024 100.843 36.7424C100.843 35.9832 100.264 35.3714 99.5 35.3714H99.4993ZM99.8321 36.899L100.257 37.5022H99.8987L99.5164 36.9488H99.1878V37.5022H98.8881V35.9033H99.5908C99.9568 35.9033 100.198 36.0934 100.198 36.4134C100.199 36.6755 100.049 36.8357 99.8334 36.899L99.8321 36.899ZM99.5784 36.1777H99.1876V36.6834H99.5784C99.7734 36.6834 99.8899 36.5866 99.8899 36.4303C99.8899 36.2658 99.7729 36.1777 99.5785 36.1777L99.5784 36.1777Z" fill="white"/>
</svg>
