<svg width="110" height="77" viewBox="0 0 110 77" fill="none" xmlns="http://www.w3.org/2000/svg">
<path d="M33.7671 32.3356H45.6655L44.5659 35.5854H41.4476V48.0235H37.6219V35.5854H33.7671V32.3356ZM65.3002 32.3356V35.5854H69.155V48.0235H72.9857V35.5854H76.099L77.1986 32.3356H65.3002ZM48.2544 36.0392C48.6211 36.039 48.9794 35.9308 49.2841 35.7283C49.5888 35.5259 49.8262 35.2383 49.9663 34.9019C50.1064 34.5655 50.1428 34.1954 50.0711 33.8385C49.9993 33.4815 49.8225 33.1537 49.5631 32.8965C49.3036 32.6393 48.9732 32.4642 48.6136 32.3934C48.2539 32.3227 47.8812 32.3594 47.5426 32.4989C47.204 32.6384 46.9146 32.8745 46.7111 33.1773C46.5076 33.4801 46.3991 33.836 46.3994 34.2C46.3994 34.4418 46.4474 34.6811 46.5407 34.9044C46.6339 35.1277 46.7706 35.3306 46.9429 35.5014C47.1152 35.6722 47.3197 35.8077 47.5447 35.8999C47.7698 35.9922 48.0109 36.0395 48.2544 36.0392ZM46.3994 48.0235H50.1552V37.3401H46.3994V48.0235ZM63.6674 35.9459H59.2742L55.4879 39.705V32.3482H51.7563L51.7448 48.0235H55.5121V43.9392L56.684 42.8791L60.3407 48.0185H64.3682L59.071 40.5029L63.6674 35.9459ZM99.6977 40.5054L104.29 35.9459H99.8983L96.1108 39.705V32.3482H92.3804L92.3626 48.0235H96.1311V43.9392L97.3145 42.8791L100.971 48.0185H105L99.6977 40.5054ZM90.0404 41.674C90.0404 45.2162 87.1086 48.0891 83.4925 48.0891C79.8764 48.0891 76.9446 45.2162 76.9446 41.674C76.9446 38.1318 79.8764 35.2589 83.4925 35.2589C87.1086 35.2589 90.0404 38.133 90.0404 41.6765V41.674ZM86.7048 41.674C86.7048 41.0432 86.5165 40.4266 86.1635 39.9021C85.8105 39.3777 85.3088 38.9689 84.7218 38.7275C84.1348 38.4861 83.4889 38.423 82.8658 38.546C82.2427 38.6691 81.6703 38.9728 81.221 39.4188C80.7718 39.8649 80.4658 40.4331 80.3419 41.0518C80.2179 41.6704 80.2815 42.3117 80.5247 42.8945C80.7678 43.4772 81.1796 43.9753 81.7078 44.3258C82.2361 44.6762 82.8572 44.8632 83.4925 44.8632C84.344 44.8632 85.1607 44.5276 85.7631 43.93C86.3654 43.3325 86.7042 42.5219 86.7048 41.6765V41.674Z" fill="white"/>
<path d="M29.6575 31.082V36.0402C28.8002 35.9556 27.6863 35.7587 26.4541 35.3024C24.8451 34.7063 23.6474 33.8913 22.8629 33.2603V43.2817L22.8429 43.2504C22.8556 43.4491 22.8629 43.6515 22.8629 43.8557C22.8629 48.8323 18.8568 52.8836 13.9315 52.8836C9.00614 52.8836 5 48.8323 5 43.8557C5 38.879 9.00614 34.826 13.9315 34.826C14.4138 34.826 14.887 34.8646 15.3494 34.94V39.8265C14.9052 39.6665 14.4284 39.58 13.9315 39.58C11.5999 39.58 9.70144 41.497 9.70144 43.8557C9.70144 46.2143 11.5999 48.1314 13.9315 48.1314C16.2631 48.1314 18.1615 46.2125 18.1615 43.8557C18.1615 43.7674 18.1597 43.6791 18.1542 43.5907V24.1165H23.0559C23.0741 24.5359 23.0904 24.9591 23.1087 25.3786C23.1414 26.2046 23.4326 26.9976 23.9404 27.6471C24.5356 28.4106 25.4148 29.2973 26.6488 30.0057C27.8046 30.6661 28.8894 30.9513 29.6575 31.0856V31.082Z" fill="white"/>
</svg>
