<svg width="200" height="77" viewBox="0 0 200 77" fill="none" xmlns="http://www.w3.org/2000/svg">
<g clip-path="url(#clip0_3689_191394)">
<mask id="mask0_3689_191394" style="mask-type:luminance" maskUnits="userSpaceOnUse" x="0" y="26" width="200" height="25">
<path d="M199.926 26.2551H0V50.7449H199.926V26.2551Z" fill="white"/>
</mask>
<g mask="url(#mask0_3689_191394)">
<path d="M0.351362 35.7587C0.351362 38.0948 1.44903 39.4992 3.40195 40.9345L0 46.1172H2.80817L6.6037 40.3208L5.28677 39.4003C3.68522 38.2998 2.91712 37.4225 2.91712 35.6038C2.91712 33.9636 4.03658 32.8409 6.18561 32.8409H7.32685V46.1199H9.93756V30.7935H6.16382C2.3465 30.7935 0.35 32.7935 0.35 35.7587H0.351362Z" fill="white"/>
<path d="M18.0776 39.3989H14.6552V35.0181H12.0881V46.1172H14.6552V41.4658H18.0776V46.1172H20.6665V35.0181H18.0776V39.3989Z" fill="white"/>
<path d="M52.1035 35.0181H49.516L45.918 40.1408V35.0181H43.3508V46.1172H45.918V40.6569L49.6903 46.1172H52.6089L48.5069 40.1408L52.1035 35.0181Z" fill="white"/>
<path d="M57.6987 36.9052C58.6861 36.9052 59.6516 37.265 60.1773 37.5788V35.3765C59.6284 35.0613 58.6861 34.8368 57.4344 34.8368C54.1442 34.8368 52.4541 37.219 52.4541 40.5663C52.4541 44.2064 54.0992 46.2289 57.5434 46.2289C58.7065 46.2289 59.5399 46.0266 60.1759 45.5552V43.3989C59.5181 43.8704 58.7501 44.1633 57.6755 44.1633C55.8546 44.1633 55.0866 42.7476 55.0866 40.5007C55.0866 38.1185 56.0304 36.9065 57.6973 36.9065L57.6987 36.9052Z" fill="white"/>
<path d="M31.0419 35.0181H23.5829V35.9623C23.5829 38.6805 23.4072 42.1632 22.5084 44.0279H21.6967V48.544H24.0882V46.1172H29.8365V48.544H32.1845V44.0279H31.0432V35.0181H31.0419ZM28.4747 44.0279H24.8767C25.5781 42.3431 25.7755 39.3319 25.7755 37.4003V37.085H28.4734V44.0279H28.4747Z" fill="white"/>
<path d="M37.4064 34.8381C34.3136 34.8381 32.821 37.2649 32.821 40.59C32.821 44.3863 34.6636 46.2287 37.9321 46.2287C39.5772 46.2287 40.7838 45.869 41.5301 45.3529V43.2189C40.7402 43.7364 39.4015 44.1632 38.1513 44.1632C36.2692 44.1632 35.5515 43.2845 35.463 41.4895H41.6173V40.1185C41.6173 36.2761 39.9722 34.8381 37.405 34.8381H37.4064ZM37.3628 36.9051C38.6566 36.9051 39.0298 37.9609 39.0298 39.332V39.5565H35.4603C35.5215 37.8158 36.1358 36.9051 37.3628 36.9051Z" fill="white"/>
<path d="M88.2501 35.5897L88.1568 35.1149L84.2135 34.4093L86.5049 31.2345L86.2385 30.936L82.8679 32.5913L83.2942 28.1953L82.9479 27.9918L80.8963 31.5465L78.5916 26.2551H78.192L78.7382 31.3702L72.943 26.6215L72.4501 26.7707L76.913 32.5099L68.0805 29.4978L67.6809 29.9591L75.5675 34.5586L64.6834 35.4812L64.5635 36.1731L75.8739 37.4349L66.442 45.4264L66.8416 45.9827L78.0721 39.7279L75.8473 50.7449H76.5267L80.8297 40.3792L83.4541 48.4926L83.9204 48.1263L82.8413 39.8771L86.9312 44.6258L87.1976 44.1917L84.067 38.3033L88.4366 39.9585L88.4765 39.4566L84.5599 36.4988L88.2501 35.5897Z" fill="white"/>
<path d="M141.228 40.4015C143.237 39.9872 144.202 38.9761 144.202 37.9161C144.202 35.6915 141.175 34.6134 137.181 34.6134C134.439 34.6134 132.377 35.1532 130.951 35.8938V38.2983C132.201 37.6246 134.263 36.9733 136.414 36.9733C137.95 36.9733 138.849 37.3108 138.849 38.1644C138.849 39.018 138.08 39.3555 136.26 39.3555H133.76V41.7377H136.238C138.586 41.7377 139.178 42.0752 139.178 42.9286C139.178 43.6484 138.279 44.1868 136.173 44.1868C133.299 44.1868 131.63 43.2885 130.622 42.7934V45.2649C131.499 45.8046 133.54 46.456 136.765 46.456C141.811 46.456 144.597 45.1072 144.597 42.9064C144.597 41.4978 143.385 40.7181 141.228 40.4043V40.4015Z" fill="white"/>
<path d="M127.573 35.0181L123.879 42.0279L119.873 35.0181H113.905L121.009 47.0768L118.864 50.565H121.913L124.918 45.4882L130.623 35.0181H127.573Z" fill="white"/>
<path d="M102.791 39.5007L99.0523 30.7935H92.7563V46.1172H95.1479V34.8465L100.061 46.1172H102.782L107.631 34.8437V46.1172H112.985V30.7935H106.424L102.791 39.5007Z" fill="white"/>
<path d="M183.32 35.0181H179.304L173.513 39.4211V35.0181H168.182V46.1172H173.513V41.4882L177.309 46.1172H184.175L177.971 39.0069L183.32 35.0181Z" fill="white"/>
<path d="M153.637 38.0502H151.443V35.0167H146.089V46.1159H153.614C157.628 46.1159 160.108 44.6779 160.108 42.0043C160.108 39.5997 157.914 38.0502 153.637 38.0502ZM152.89 43.802H151.443V40.364H152.89C154.053 40.364 154.734 40.9262 154.734 42.0712C154.734 43.3962 154.141 43.8006 152.89 43.8006V43.802Z" fill="white"/>
<path d="M194.792 35.0404L194.674 36.4351C193.587 35.4044 191.97 34.8605 189.901 34.8605C186.259 34.8605 183.275 36.8828 183.275 40.6346C183.275 44.3864 186.105 46.431 189.879 46.431C191.909 46.431 193.567 45.8774 194.685 44.8048L194.792 46.1158H199.927V35.0404H194.792ZM191.677 43.9596C189.855 43.9596 188.736 43.021 188.736 40.6123C188.736 38.0558 189.899 37.3319 191.677 37.3319C193.3 37.3319 194.596 38.032 194.596 40.6123C194.596 43.1925 193.499 43.9596 191.677 43.9596Z" fill="white"/>
<path d="M166.052 35.0181H160.721V46.1172H166.052V35.0181Z" fill="white"/>
</g>
</g>
<defs>
<clipPath id="clip0_3689_191394">
<rect width="200" height="24.4898" fill="white" transform="translate(0 26.2551)"/>
</clipPath>
</defs>
</svg>
