<svg width="150" height="77" viewBox="0 0 150 77" fill="none" xmlns="http://www.w3.org/2000/svg">
<path d="M44.8684 45.7495L50.4236 30.4749H47.6783L43.2255 43.0629H42.7933L38.4916 30.4749H35.7032L41.0857 45.7495H44.8684Z" fill="white"/>
<path d="M57.6253 37.8414L64.0883 30.4749H60.8893L55.4851 36.6931H54.8584V30.4749H52.2646V45.7495H54.8584V39.2063H55.5069L61.2134 45.7495H64.6288L57.6253 37.8414Z" fill="white"/>
<path d="M73.3273 45.7495V33.9415H73.6732L77.9314 45.7495H80.3524L84.6974 33.9415H85.043V45.7495H87.5723V30.4749H83.595L79.3583 42.0229H79.0124L74.8622 30.4749H70.7983V45.7495H73.3273Z" fill="white"/>
<path d="M95.7167 42.6079H95.3708L92.0635 34.483H89.4047L94.3979 46.3561L94.2684 46.7028C93.944 47.6127 93.5551 47.9161 92.7335 47.9161H90.6369L90.853 50.191H92.5607C94.6358 50.191 95.7597 49.2594 96.5162 47.1578L101.121 34.483H98.5916L95.7167 42.6079Z" fill="white"/>
<path d="M108.94 40.0079C110.085 39.7046 110.928 38.7729 110.928 37.4946C110.928 35.6097 109.134 34.2664 106.648 34.2664C104.422 34.2664 102.541 35.3063 101.85 37.4513L104.141 37.8413C104.595 36.953 105.481 36.3896 106.562 36.3896C107.599 36.3896 108.442 36.9096 108.442 37.7546C108.442 38.5129 107.751 39.0113 106.411 39.0113H105.006V41.1779H106.411C108.097 41.1779 108.615 41.7412 108.615 42.4562C108.615 43.3228 107.837 43.8428 106.411 43.8428C105.114 43.8428 104.357 43.4095 103.86 42.4129L101.569 42.8029C102.109 44.6878 103.946 45.9661 106.432 45.9661C109.286 45.9661 111.101 44.4928 111.101 42.6512C111.101 41.2429 110.085 40.3546 108.94 40.0079Z" fill="white"/>
<path d="M117.713 45.7495C120.393 45.7495 122.295 44.0812 122.295 41.7196C122.295 39.3579 120.415 37.6896 117.713 37.6896H115.962V34.483H113.476V45.7495H117.713ZM126.121 45.7495V34.483H123.635V45.7495H126.121ZM115.962 39.8563H117.713C118.945 39.8563 119.809 40.6146 119.809 41.7196C119.809 42.8245 118.945 43.5828 117.713 43.5828H115.962V39.8563Z" fill="white"/>
<path d="M139.174 45.7495L134.008 39.8996L138.742 34.483H135.78L132.019 38.8596H131.414V34.483H128.928V45.7495H131.414V41.2646H132.019L135.91 45.7495H139.174Z" fill="white"/>
<path d="M144.74 34.2664C142.557 34.2664 140.634 35.393 140.072 37.343L142.363 37.733C142.709 37.0396 143.487 36.3896 144.611 36.3896C145.973 36.3896 146.773 37.3646 146.881 38.8379H144.46C141.152 38.8379 139.51 40.2896 139.51 42.3695C139.51 44.4712 141.131 45.9661 143.422 45.9661C145.259 45.9661 146.491 44.9045 147.032 43.9728L147.551 45.7495H149.388V39.4229C149.388 36.1513 147.615 34.2664 144.74 34.2664ZM144.006 43.8645C142.795 43.8645 142.017 43.2362 142.017 42.2612C142.017 41.3945 142.644 40.7879 144.546 40.7879H146.902C146.902 42.6295 145.735 43.8645 144.006 43.8645Z" fill="white"/>
<rect x="1.04993" y="29.0499" width="19.9" height="19.9" rx="6.03125" stroke="white"/>
<path fill-rule="evenodd" clip-rule="evenodd" d="M9.21497 35.2079C7.03014 36.6834 4.53936 38.3655 0.549967 38.3655L0.549927 38.7762V39.5973C0.549927 44.2419 1.36671 45.9544 2.83586 47.3973C4.23998 48.7763 5.6452 49.4473 9.96764 49.45H12.0322C16.3547 49.4473 17.4333 48.7763 18.8374 47.3973C20.3066 45.9544 21.4499 44.2419 21.4499 39.5973V38.7762C21.4499 37.9117 21.4499 37.1276 21.4405 36.4147C21.3044 36.3128 21.1431 36.1845 20.9588 36.0379L20.9575 36.0369C19.6468 34.9945 17.175 33.0286 14.3439 33.0286C12.4419 33.0286 10.9218 34.0552 9.21501 35.2078L9.21497 35.2079ZM13.4048 37.0261C13.4048 36.5187 13.8287 36.1075 14.3453 36.1075C14.8618 36.1075 15.2858 36.5187 15.2858 37.0261V45.4523C15.2858 45.9596 14.8618 46.3709 14.3453 46.3709C13.8287 46.3709 13.4048 45.9596 13.4048 45.4523V37.0261ZM16.7487 39.3866C16.7487 38.8793 17.1726 38.468 17.6892 38.468C18.2057 38.468 18.6297 38.8793 18.6297 39.3866V43.0917C18.6297 43.599 18.2057 44.0103 17.6892 44.0103C17.1726 44.0103 16.7487 43.599 16.7487 43.0917V39.3866ZM11.0013 38.468C10.4847 38.468 10.0608 38.8793 10.0608 39.3866V43.0917C10.0608 43.599 10.4847 44.0103 11.0013 44.0103C11.5178 44.0103 11.9418 43.599 11.9418 43.0917V39.3866C11.9418 38.8793 11.5178 38.468 11.0013 38.468ZM6.71633 40.7208C6.71633 40.2135 7.14031 39.8022 7.65683 39.8022C8.17338 39.8022 8.59733 40.2135 8.59733 40.7208V41.7574C8.59733 42.2647 8.17338 42.676 7.65683 42.676C7.14031 42.676 6.71633 42.2647 6.71633 41.7574V40.7208ZM4.31283 39.8022C3.7963 39.8022 3.37233 40.2135 3.37233 40.7208V41.7574C3.37233 42.2647 3.7963 42.676 4.31283 42.676C4.82937 42.676 5.25333 42.2647 5.25333 41.7574V40.7208C5.25333 40.2135 4.82937 39.8022 4.31283 39.8022Z" fill="white"/>
</svg>
