<svg width="95" height="77" viewBox="0 0 95 77" fill="none" xmlns="http://www.w3.org/2000/svg">
<g clip-path="url(#clip0_3689_191369)">
<path d="M44.9001 36.1C44.3001 39 43.9001 42.4 43.7001 43.9H43.5C43.3 42.4 42.9 39 42.3 36.2L40.8 29.2H36.3V48.1H39.1V32.5L39.4 34L42.3 48.1H45.1L47.9001 34L48.1 32.5V48H50.9001V29.2H46.3C46.4 29.2 44.9001 36.1 44.9001 36.1Z" fill="white"/>
<path d="M58.5 45.2C58.2 45.7 57.7 46.1 57.1 46.1C56.5 46.1 56.2 45.6 56.2 44.4V34.3H53V44.5C53 47 53.9 48.2 55.8 48.2C57.1 48.2 58.1 47.6 58.9 46.3H59L59.3 48H61.8V34.3H58.5V45.2Z" fill="white"/>
<path d="M67.9 39.7C66.9 39 66.2 38.5 66.2 37.4C66.2 36.6 66.6 36.2 67.4 36.2C68.3 36.2 68.6 36.8 68.6 38.9L71.3 38.8C71.5 35.5 70.4 34.1 67.4 34.1C64.7 34.1 63.3 35.3 63.3 37.7C63.3 39.9 64.4 40.9 66.2 42.3C67.8 43.5 68.7 44.1 68.7 45.1C68.7 45.8 68.2 46.3 67.4 46.3C66.4 46.3 65.9 45.4 66 43.9H63.3C62.9 46.8 64.1 48.4 67.2 48.4C70 48.4 71.4 47.2 71.4 44.7C71.6 42.4 70.4 41.5 67.9 39.7Z" fill="white"/>
<path d="M76.4 34.3H73.3V48H76.4V34.3Z" fill="white"/>
<path d="M74.9 28.8C73.7 28.8 73.2 29.2 73.2 30.7C73.2 32.2 73.8 32.6 74.9 32.6C76.1 32.6 76.6 32.2 76.6 30.7C76.6 29.3 76.1 28.8 74.9 28.8Z" fill="white"/>
<path d="M86.7 43.1L83.9 43C83.9 45.4 83.6 46.2 82.7 46.2C81.8 46.2 81.6 45.3 81.6 42.5V39.8C81.6 37 81.8 36.2 82.7 36.2C83.6 36.2 83.8 37 83.8 39.6L86.6 39.4C86.8 37.3 86.5 35.8 85.7 35C85.1 34.4 84.1 34.1 82.8 34.1C79.7 34.1 78.4 35.7 78.4 40.3V42.2C78.4 46.9 79.5 48.4 82.7 48.4C84 48.4 85 48.1 85.6 47.5C86.4 46.6 86.7 45.2 86.7 43.1Z" fill="white"/>
<path fill-rule="evenodd" clip-rule="evenodd" d="M24.75 38.5C24.75 41.6756 22.1756 44.25 19 44.25C15.8244 44.25 13.25 41.6756 13.25 38.5C13.25 35.3244 15.8244 32.75 19 32.75C22.1756 32.75 24.75 35.3244 24.75 38.5ZM22.7375 38.5L16.6042 41.8542V35.1458L22.7375 38.5Z" fill="white"/>
<path d="M30.5 38.5C30.5 44.8513 25.3513 50 19 50C12.6487 50 7.5 44.8513 7.5 38.5C7.5 32.1487 12.6487 27 19 27C25.3513 27 30.5 32.1487 30.5 38.5ZM11.7668 38.5C11.7668 42.4948 15.0052 45.7332 19 45.7332C22.9948 45.7332 26.2332 42.4948 26.2332 38.5C26.2332 34.5052 22.9948 31.2668 19 31.2668C15.0052 31.2668 11.7668 34.5052 11.7668 38.5Z" fill="white"/>
</g>
<defs>
<clipPath id="clip0_3689_191369">
<rect width="80" height="24" fill="white" transform="translate(7.5 26.5)"/>
</clipPath>
</defs>
</svg>
