<svg width="110" height="77" viewBox="0 0 110 77" fill="none" xmlns="http://www.w3.org/2000/svg">
<g clip-path="url(#clip0_3683_191366)">
<path d="M15.5272 27.7546C13.8182 28.3546 12.3454 29.8091 11.7272 31.4637C11.3636 32.4273 11.3454 32.7546 11.4 38.8455L11.4545 45.2273L12 46.1909C12.6909 47.4819 14.0363 48.6637 15.3091 49.1364C16.2909 49.5 16.6 49.5182 22.6182 49.4637L28.9091 49.4091L29.8727 48.8637C31.1636 48.1728 32.3454 46.8273 32.8182 45.5546C33.1818 44.5728 33.2 44.2637 33.1454 38.1546L33.0909 31.7728L32.5454 30.8091C31.8545 29.5364 30.5091 28.3364 29.2545 27.8819C28.3272 27.5182 27.8727 27.5 22.2182 27.5C17.7636 27.5182 16.0182 27.5728 15.5272 27.7546ZM28.8182 30.4091C29.2182 30.6091 29.7636 31.1182 30.0363 31.5364L30.5454 32.2819L30.6 38.3364C30.6545 44.1546 30.6363 44.4273 30.2727 45.1364C29.9091 45.8455 28.9636 46.6091 28.1636 46.8455C27.8 46.9546 27.7454 46.8637 27.5454 45.7364C26.4363 39.3728 21.6727 34.4091 15.5091 33.2091C14.6182 33.0455 13.9091 32.8273 13.9091 32.7364C13.9091 32.6455 14.0727 32.2637 14.2727 31.8637C14.6363 31.1728 15.3091 30.5546 16.1091 30.2455C16.3454 30.1546 19.1454 30.0637 22.3272 30.0637C27.7818 30.0455 28.1454 30.0637 28.8182 30.4091ZM15.5454 35.7909C17.1636 36.1728 19.4182 37.3 20.7818 38.4273C21.4 38.9364 21.9091 39.4091 21.9091 39.4819C21.9091 39.5546 22.2545 40.0455 22.6727 40.5909C23.6 41.8273 24.5454 43.8455 24.9091 45.3546C25.3091 47.0819 25.4182 46.9728 23.4182 46.9182L21.6727 46.8637L21.4182 45.7909C20.9454 43.7 19.8182 42.1728 17.1636 39.9909C16.8182 39.7182 15.9454 39.3 15.2363 39.0819L13.9091 38.7V37.1C13.9091 35.3 13.8 35.3728 15.5454 35.7909ZM15.4909 42.0455C15.9091 42.2273 16.6182 42.7182 17.0727 43.1364C17.9454 43.9364 19 45.8091 19 46.5364C19 46.9364 18.9454 46.9546 17.7272 46.9546C16.1272 46.9546 15.2 46.5182 14.5091 45.4637C14.0727 44.8091 14 44.5 13.9272 43.0819L13.8727 41.4637L14.2909 41.5909C14.5272 41.6637 15.0727 41.8637 15.4909 42.0455Z" fill="white"/>
<path d="M43 31.3001C40.8909 31.991 41 31.8455 41 33.991V35.8637L41.6909 35.1728C42.6727 34.191 43.9454 33.6273 45.3091 33.5364C47.5273 33.391 48.6364 33.9546 48.6364 35.2091C48.6364 36.7546 47.7454 37.3182 45.3636 37.3182H43.9091V38.5001V39.6819H45.9091C47.0182 39.6819 47.9091 39.7546 47.9091 39.8455C47.9091 39.9364 48.1091 40.0637 48.3636 40.1182C49.0364 40.3001 49.4364 41.0091 49.3091 41.8819C49.1818 42.791 48.8182 43.2273 47.8 43.6091C45.8727 44.3364 42.4727 43.4637 41.1818 41.9001L40.6364 41.2273V42.8819C40.6364 44.3546 40.6727 44.5728 41.0545 44.9182C42.0909 45.9001 44.5636 46.5182 46.8909 46.3728C50.7818 46.1182 52.9454 43.6819 52.0727 40.5001C51.8182 39.5728 51.2909 38.991 50.3273 38.5546C49.8909 38.3728 49.5454 38.1546 49.5454 38.0819C49.5454 38.0091 49.8364 37.7182 50.2 37.4273C51.4909 36.391 51.8909 34.6091 51.1454 33.1364C50.3636 31.6091 48.7454 30.9546 45.8364 30.9728C44.5818 30.9728 43.6909 31.0819 43 31.3001Z" fill="white"/>
<path d="M55.1818 38.6818V46.2273H58.7999C60.7818 46.2273 62.8545 46.1364 63.3818 46.0455C65.7636 45.5909 67.0181 44.3364 67.1454 42.3C67.2545 40.7182 66.9272 39.6273 66.1454 38.9546C65.8181 38.6455 65.4181 38.4091 65.2727 38.4091C64.8727 38.4091 64.9272 38.3 65.709 37.5182C66.5818 36.6455 66.8909 35.6273 66.7272 34.3182C66.5999 33.3 66.2545 32.6455 65.4909 32.0455C64.509 31.2637 63.5818 31.1364 59.2363 31.1364H55.1818V38.6818ZM63.1818 33.9546C64.3818 34.5727 64.2181 36.5182 62.9272 37.0455C62.4909 37.2273 61.5999 37.3182 60.0909 37.3182H57.909V35.5V33.6818H60.2727C62.0181 33.6818 62.7999 33.7546 63.1818 33.9546ZM63.1454 39.7909C63.2181 39.9 63.4181 40.0273 63.5818 40.1C63.7454 40.1546 64.0363 40.4273 64.1999 40.6818C64.6545 41.3727 64.3636 42.6818 63.6727 43.2091C63.2181 43.5546 62.8545 43.5909 60.5272 43.6455L57.909 43.7182V41.5909V39.4637L60.4545 39.5364C61.9999 39.5727 63.0727 39.6637 63.1454 39.7909Z" fill="white"/>
<path d="M68.6 31.7182C69.2909 32.8818 72.4181 38.5364 73.4545 40.5C74.0181 41.5909 74.5818 42.6091 74.6727 42.7182C74.9091 43.0091 74.5636 43.4636 73.9818 43.6818C73.6181 43.8273 72.7636 43.7 72.0545 43.4091C71.7636 43.3 71.7272 43.4091 71.7272 44.5545C71.7272 46.0091 71.8545 46.1727 73.0181 46.3364C74.8 46.5727 76.2909 45.5727 77.2545 43.4636C80.2545 36.9727 82.8181 31.3545 82.8181 31.2454C82.8181 31.1727 82.1818 31.1364 81.4181 31.1727L80.0181 31.2273L78.1636 35.2818C77.1454 37.5 76.2727 39.3727 76.2181 39.4273C76.1818 39.4818 75.0909 37.6273 73.8 35.3364L71.4727 31.1364H69.8545H68.2363L68.6 31.7182Z" fill="white"/>
<path d="M85 38.6818V46.2273H86.3636H87.7273V42.9546V39.6818H88.9818C89.9273 39.6818 90.2545 39.7546 90.3455 39.9546C90.4 40.1 91.5636 41.5727 92.9455 43.2273L95.4545 46.2273H97.1455C98.0545 46.2273 98.8182 46.1909 98.8182 46.1182C98.8182 46.0637 97.6909 44.6818 96.3273 43.0455C93.6909 39.9182 92.5818 38.5182 92.4909 38.2273C92.4545 38.1364 93.6182 36.5727 95.0727 34.7727C96.5273 32.9727 97.7273 31.4273 97.7273 31.3182C97.7273 31.2091 97.1091 31.1364 96.2 31.1364H94.6909L92.3455 34.2273L90 37.3L88.8727 37.3182H87.7273V34.2273V31.1364H86.3636H85V38.6818Z" fill="white"/>
</g>
<defs>
<clipPath id="clip0_3683_191366">
<rect width="87.6364" height="22" fill="white" transform="translate(11.1818 27.5)"/>
</clipPath>
</defs>
</svg>
