<?xml version="1.0" standalone="no"?>
<!DOCTYPE svg PUBLIC "-//W3C//DTD SVG 20010904//EN"
 "http://www.w3.org/TR/2001/REC-SVG-20010904/DTD/svg10.dtd">
<svg version="1.0" xmlns="http://www.w3.org/2000/svg"
 width="48.000000pt" height="48.000000pt" viewBox="0 0 48.000000 48.000000"
 preserveAspectRatio="xMidYMid meet">

<g transform="translate(0.000000,48.000000) scale(0.100000,-0.100000)"
fill="#000000" stroke="none">
<path d="M20 396 c0 -8 14 -26 31 -40 26 -22 40 -26 94 -26 44 0 64 -4 68 -14
10 -25 -16 -36 -84 -36 -63 0 -69 -2 -93 -31 -23 -27 -26 -40 -26 -102 l0 -71
35 34 c20 19 37 48 41 67 6 31 9 33 46 33 30 0 49 -7 74 -29 41 -37 65 -32
102 20 15 21 30 39 35 39 4 0 7 -34 7 -75 0 -66 2 -75 18 -75 11 0 26 8 35 18
14 15 17 42 17 159 0 137 -1 141 -20 136 -11 -3 -41 -28 -65 -57 -31 -34 -45
-45 -45 -33 0 30 -27 72 -55 85 -14 7 -68 12 -120 12 -75 0 -95 -3 -95 -14z"/>
<path d="M109 124 l-34 -35 40 3 c37 3 40 5 43 36 4 41 -6 40 -49 -4z"/>
</g>
</svg>
